<svg height="512pt" viewBox="0 0 512 512" width="512pt" xmlns="http://www.w3.org/2000/svg"><path d="m512 256c0 50.113281-14.398438 96.871094-39.296875 136.347656-.816406 1.296875-1.640625 2.582032-2.476563 3.855469-6.394531 9.75-13.429687 19.027344-21.054687 27.785156-46.929687 53.925781-116.070313 88.011719-193.171875 88.011719-31.097656 0-60.886719-5.539062-88.460938-15.695312-7.335937-2.695313-14.523437-5.726563-21.523437-9.070313-14.097656-6.71875-27.480469-14.679687-40.011719-23.769531-25.722656-18.621094-47.835937-41.910156-65.117187-68.628906-5.933594-9.175782-11.304688-18.765626-16.050781-28.714844-.488282-1.011719-.96875-2.035156-1.441407-3.0625-1.816406-3.949219-3.542969-7.949219-5.160156-11.992188-.667969-1.695312-1.328125-3.386718-1.964844-5.089844-3.59375-9.5625-6.636719-19.394531-9.070312-29.464843-4.703125-19.394531-7.199219-39.664063-7.199219-60.511719 0-11.515625.761719-22.863281 2.246094-33.96875 16.605468-125.324219 123.882812-222.03125 253.753906-222.03125 86.234375 0 162.511719 42.640625 208.894531 107.980469 16.4375 23.164062 29.121094 49.171875 37.167969 77.15625 6.25 21.710937 9.6875 44.605469 9.917969 68.273437.019531.867188.019531 1.722656.019531 2.589844zm0 0" fill="#304b82"/><path d="m470.226562 396.203125c-45.738281 69.738281-124.59375 115.796875-214.226562 115.796875-39.371094 0-76.664062-8.882812-109.984375-24.765625-4.378906-73.507813-2.980469-147.027344 4.179687-220.535156 1.011719-10.4375 9.296876-18.722657 19.738282-19.738281 91.300781-8.882813 182.605468-8.882813 273.90625 0 10.449218 1.015624 18.738281 9.300781 19.75 19.738281 4.199218 43.164062 6.40625 86.339843 6.636718 129.503906zm0 0" fill="#2f373b"/><path d="m449.171875 423.988281c-25.351563 29.140625-57.199219 52.484375-93.269531 67.78125-14.574219 6.1875-29.84375 11.054688-45.652344 14.472657-3.164062.679687-6.363281 1.304687-9.570312 1.871093-5.046876.886719-10.144532 1.628907-15.285157 2.214844-5.164062.59375-10.367187 1.035156-15.621093 1.304687-4.558594.242188-9.15625.367188-13.773438.367188-.523438 0-1.042969 0-1.558594-.011719-13.269531-.070312-26.296875-1.167969-39.003906-3.1875-5.003906-.792969-9.957031-1.734375-14.847656-2.820312-11.316406-2.496094-22.351563-5.734375-33.050782-9.675781-.011718-.136719-.019531-.28125-.03125-.417969-.273437-4.023438-.523437-8.042969-.753906-12.078125-.125-2.214844-.238281-4.429688-.355468-6.644532-.0625-.992187-.101563-1.984374-.15625-2.980468-.113282-2.308594-.230469-4.617188-.332032-6.925782-3.019531-66.195312-1.316406-132.703124 5.078125-198.53125.050781-.5.46875-.917968.96875-.972656 44.777344-4.355468 90.167969-6.5625 134.929688-6.5625 44.773437 0 90.164062 2.207032 134.9375 6.5625.503906.054688.921875.472656.972656.972656 5.003906 51.503907 7.136719 103.414063 6.375 155.261719zm0 0" fill="#6cb9d3"/><path d="m225.8125 458.730469h-19.695312c-3.332032 0-5.527344 2.101562-5.527344 4.472656v42.777344c4.890625 1.085937 9.84375 2.027343 14.847656 2.820312v-5.621093h9.425781c13.132813 0 23.414063-6.089844 23.414063-22.078126v-.480468c0-15.984375-9.894532-21.890625-22.464844-21.890625zm7.617188 23.511719c0 6.476562-3.238282 9.519531-8.566407 9.519531h-9.425781v-20.085938h9.425781c5.328125 0 8.566407 3.050781 8.566407 9.519531zm0 0" fill="#2f373b"/><path d="m277.316406 458.730469c-13.144531 0-23.324218 6.09375-23.324218 22.464843v25.226563c0 2.003906.160156 3.863281.449218 5.566406.515625.011719 1.035156.011719 1.558594.011719 4.617188 0 9.214844-.125 13.773438-.367188-.609376-1.378906-.933594-3.101562-.933594-5.210937v-25.226563c0-6.5625 3.136718-9.519531 8.476562-9.519531 5.328125 0 8.558594 2.957031 8.558594 9.519531v25.226563c0 1.480469-.167969 2.789063-.480469 3.90625 5.140625-.585937 10.238281-1.328125 15.285157-2.214844.03125-.554687.042968-1.117187.042968-1.691406v-25.226563c0-16.371093-10.273437-22.464843-23.40625-22.464843zm0 0" fill="#2f373b"/><path d="m335.476562 458.730469h-19.707031c-3.335937 0-5.519531 2.101562-5.519531 4.472656v43.039063c15.808594-3.417969 31.078125-8.285157 45.652344-14.472657 1.304687-2.902343 2.027344-6.445312 2.027344-10.667969v-.480468c0-15.984375-9.894532-21.890625-22.453126-21.890625zm7.605469 23.511719c0 6.476562-3.230469 9.519531-8.570312 9.519531h-9.414063v-20.085938h9.414063c5.339843 0 8.570312 3.050781 8.570312 9.519531zm0 0" fill="#2f373b"/><path d="m511.980469 253.410156c-.230469-23.667968-3.667969-46.5625-9.917969-68.273437-8.046875-27.984375-20.730469-53.992188-37.167969-77.15625-3.53125-.261719-7.105469-.398438-10.699219-.398438-78.960937 0-142.972656 64.023438-142.972656 142.984375 0 78.964844 64.011719 142.972656 142.972656 142.972656 6.269532 0 12.445313-.40625 18.507813-1.191406 24.898437-39.476562 39.296875-86.234375 39.296875-136.347656 0-.867188 0-1.722656-.019531-2.589844zm-57.785157 18.316406c-11.679687 0-21.160156-9.476562-21.160156-21.160156 0-11.691406 9.480469-21.160156 21.160156-21.160156 4.671876 0 8.988282 1.503906 12.488282 4.085938 5.253906 3.835937 8.671875 10.050781 8.671875 17.074218 0 .355469-.011719.699219-.03125 1.046875-.542969 11.199219-9.800781 20.113281-21.128907 20.113281zm0 0" fill="#d8d4ce"/><path d="m511.980469 253.410156-9.113281-.449218-27.542969-1.347657c.019531-.347656.03125-.691406.03125-1.046875 0-7.023437-3.417969-13.238281-8.671875-17.074218l16.289062-22.265626 19.089844-26.089843c6.25 21.710937 9.6875 44.605469 9.917969 68.273437zm0 0" fill="#f2efea"/><path d="m482.972656 211.226562c-8.066406-5.914062-18.015625-9.40625-28.777344-9.40625-26.914062 0-48.734374 21.828126-48.734374 48.746094 0 26.917969 21.820312 48.734375 48.734374 48.734375 26.113282 0 47.429688-20.53125 48.671876-46.339843.042968-.796876.0625-1.589844.0625-2.394532 0-16.152344-7.855469-30.46875-19.957032-39.339844zm-28.777344 60.5c-11.679687 0-21.160156-9.476562-21.160156-21.160156 0-11.691406 9.480469-21.160156 21.160156-21.160156 4.671876 0 8.988282 1.503906 12.488282 4.085938 5.253906 3.835937 8.671875 10.050781 8.671875 17.074218 0 .355469-.011719.699219-.03125 1.046875-.542969 11.199219-9.800781 20.113281-21.128907 20.113281zm0 0" fill="#b2aca3"/><path d="m86.769531 249.617188c-23.65625-17.347657-52.839843-27.585938-84.429687-27.585938h-.09375c-1.484375 11.105469-2.246094 22.453125-2.246094 33.96875 0 20.847656 2.496094 41.117188 7.199219 60.511719 2.433593 10.070312 5.476562 19.902343 9.070312 29.464843.636719 1.703126 1.296875 3.394532 1.964844 5.089844 2.882813 3.257813 4.753906 7.40625 5.160156 11.992188.472657 1.027344.953125 2.050781 1.441407 3.0625 4.746093 9.949218 10.117187 19.539062 16.050781 28.714844 17.28125 26.71875 39.394531 50.007812 65.117187 68.628906 22.851563-24.042969 37.417969-56.046875 39.132813-91.417969.125-2.332031.175781-4.671875.175781-7.03125 0-47.378906-23.050781-89.382813-58.542969-115.398437zm0 0" fill="#d8d4ce"/><path d="m145.3125 365.015625c0 2.359375-.050781 4.699219-.175781 7.03125l-94.125-4.640625-26.175781-1.285156c-.488282-1.011719-.96875-2.035156-1.441407-3.0625-.40625-4.585938-2.277343-8.734375-5.160156-11.992188-.667969-1.695312-1.328125-3.386718-1.964844-5.089844l14.847657-20.304687 55.652343-76.054687c35.492188 26.015624 58.542969 68.019531 58.542969 115.398437zm0 0" fill="#f2efea"/><path d="m31.117188 325.671875c-6.832032-5.011719-15.027344-8.285156-23.917969-9.160156 2.433593 10.070312 5.476562 19.902343 9.070312 29.464843.636719 1.703126 1.296875 3.394532 1.964844 5.089844 2.882813 3.257813 4.753906 7.40625 5.160156 11.992188.472657 1.027344.953125 2.050781 1.441407 3.0625 4.746093 9.949218 10.117187 19.539062 16.050781 28.714844 5.933593-7.660157 9.625-17.125 10.125-27.429688.042969-.792969.0625-1.585938.0625-2.390625 0-16.15625-7.855469-30.46875-19.957031-39.34375zm0 0" fill="#b2aca3"/><path d="m368.539062 443.035156c-91.300781 8.882813-182.605468 8.882813-273.910156 0-10.441406-1.015625-18.730468-9.300781-19.746094-19.746094-8.882812-91.304687-8.882812-182.605468 0-273.910156 1.015626-10.445312 9.304688-18.730468 19.746094-19.746094 91.304688-8.882812 182.609375-8.882812 273.910156 0 10.445313 1.015626 18.734376 9.300782 19.75 19.746094 8.878907 91.304688 8.878907 182.605469 0 273.910156-1.015624 10.445313-9.304687 18.730469-19.75 19.746094zm0 0" fill="#2f373b"/><path d="m367.492188 421.269531c-.054688.5-.472657.917969-.972657.960938-44.773437 4.359375-90.164062 6.574219-134.9375 6.574219-39.726562 0-79.945312-1.746094-119.789062-5.183594-2.632813-.230469-5.265625-.460938-7.898438-.710938-2.414062-.21875-4.828125-.449218-7.242187-.679687-.5-.042969-.917969-.460938-.96875-.960938-.011719-.082031-.023438-.179687-.023438-.261719-.386718-3.90625-.75-7.816406-1.085937-11.722656-.28125-3.113281-.542969-6.226562-.792969-9.34375-.335938-3.96875-.636719-7.941406-.921875-11.910156-.238281-3.15625-.457031-6.3125-.65625-9.46875-.273437-4.019531-.523437-8.042969-.753906-12.078125-.125-2.214844-.238281-4.429687-.355469-6.644531-.0625-.992188-.101562-1.984375-.15625-2.976563-.113281-2.3125-.230469-4.621093-.332031-6.929687-3.019531-66.195313-1.316407-132.703125 5.078125-198.53125.050781-.5.46875-.917969.96875-.96875 44.777344-4.359375 90.164062-6.5625 134.929687-6.5625 44.773438 0 90.164063 2.203125 134.9375 6.5625.5.050781.917969.46875.972657.96875 8.703124 89.539062 8.703124 180.328125 0 269.867187zm0 0" fill="#f76cae"/><g fill="#c92888"><path d="m148.605469 341.40625c13.136719 0 23.417969 6.09375 23.417969 22.464844v24.652344c0 16.371093-10.28125 22.464843-23.417969 22.464843h-16.847657c-3.902343 0-6.472656-2.09375-6.472656-4.472656v-60.632813c0-2.378906 2.570313-4.472656 6.472656-4.472656h16.847657zm-8.472657 12.945312v43.691407h8.472657c5.332031 0 8.566406-3.046875 8.566406-9.519531v-24.652344c0-6.472656-3.238281-9.519532-8.566406-9.519532zm0 0"/><path d="m181.445312 345.882812c0-3.144531 3.714844-4.476562 7.425782-4.476562 3.710937 0 7.421875 1.332031 7.421875 4.476562v60.535157c0 3.046875-3.710938 4.570312-7.421875 4.570312-3.710938 0-7.425782-1.523437-7.425782-4.570312zm0 0"/><path d="m235.132812 392.332031c0-11.519531-30.175781-9.519531-30.175781-31.792969 0-14.277343 12.46875-19.703124 24.367188-19.703124 5.042969 0 18.941406.953124 18.941406 8.375 0 2.570312-1.714844 7.808593-5.902344 7.808593-3.425781 0-5.234375-3.621093-13.039062-3.621093-6.757813 0-9.515625 2.761718-9.515625 5.714843 0 9.515625 30.171875 7.707031 30.171875 31.695313 0 13.707031-9.992188 21.132812-23.796875 21.132812-12.46875 0-22.9375-6.09375-22.9375-12.375 0-3.238281 2.855468-7.996094 6.472656-7.996094 4.472656 0 7.328125 7.042969 16.179688 7.042969 4.378906 0 9.234374-1.714843 9.234374-6.28125zm0 0"/><path d="m279.964844 354.351562c-5.425782 0-8.566406 3.046876-8.566406 9.519532v25.222656c0 6.472656 3.140624 9.519531 8.660156 9.519531 7.617187 0 8.09375-5.804687 8.378906-9.519531.285156-3.519531 3.523438-4.472656 7.328125-4.472656 5.140625 0 7.519531 1.332031 7.519531 7.042968 0 12.660157-10.277344 19.894532-23.890625 19.894532-12.46875 0-22.84375-6.089844-22.84375-22.464844v-25.222656c0-16.371094 10.375-22.464844 22.84375-22.464844 13.613281 0 23.890625 6.855469 23.890625 18.945312 0 5.710938-2.378906 7.042969-7.421875 7.042969-4 0-7.234375-1.046875-7.425781-4.472656-.097656-2.476563-.382812-8.570313-8.472656-8.570313zm0 0"/><path d="m310.046875 389.09375v-25.222656c0-16.371094 10.183594-22.464844 23.320313-22.464844 13.132812 0 23.414062 6.09375 23.414062 22.464844v25.222656c0 16.371094-10.28125 22.464844-23.414062 22.464844-13.136719 0-23.320313-6.089844-23.320313-22.464844zm31.882813-25.222656c0-6.566406-3.234376-9.519532-8.5625-9.519532-5.332032 0-8.472657 2.953126-8.472657 9.519532v25.222656c0 6.570312 3.140625 9.519531 8.472657 9.519531 5.328124 0 8.5625-2.949219 8.5625-9.519531zm0 0"/></g><path d="m453.058594 171.59375c0 2.359375-.050782 4.703125-.175782 7.03125-3.65625 75.691406-66.195312 135.941406-142.796874 135.941406-78.960938 0-142.972657-64.011718-142.972657-142.972656 0-78.964844 64.011719-142.984375 142.972657-142.984375 31.589843 0 60.773437 10.238281 84.429687 27.585937 35.496094 26.015626 58.542969 68.023438 58.542969 115.398438zm0 0" fill="#d8d4ce"/><path d="m453.058594 171.59375c0 2.359375-.050782 4.703125-.175782 7.03125l-142.796874-7.03125 84.429687-115.398438c35.496094 26.015626 58.542969 68.023438 58.542969 115.398438zm0 0" fill="#f2efea"/><path d="m358.824219 171.589844c0 26.917968-21.820313 48.738281-48.738281 48.738281-26.917969 0-48.738282-21.820313-48.738282-48.738281 0-26.917969 21.820313-48.738282 48.738282-48.738282 26.917968 0 48.738281 21.820313 48.738281 48.738282zm0 0" fill="#b2aca3"/><path d="m310.277344 328.316406c-91.300782 8.882813-182.605469 8.882813-273.910156 0-10.445313-1.015625-18.730469-9.304687-19.746094-19.746094-8.882813-91.304687-8.882813-182.609374 0-273.910156 1.015625-10.445312 9.304687-18.734375 19.746094-19.75 91.304687-8.882812 182.605468-8.882812 273.910156 0 10.445312 1.015625 18.730468 9.304688 19.746094 19.75 8.882812 91.300782 8.882812 182.605469 0 273.910156-1.015626 10.441407-9.300782 18.730469-19.746094 19.746094zm0 0" fill="#2f373b"/><path d="m309.230469 306.550781c-.054688.5-.472657.917969-.972657.960938-44.773437 4.355469-90.164062 6.570312-134.9375 6.570312-39.726562 0-79.945312-1.742187-119.789062-5.179687-2.632812-.230469-5.265625-.460938-7.898438-.710938-2.414062-.21875-4.828124-.449218-7.242187-.679687-.5-.042969-.917969-.460938-.972656-.960938-.007813-.085937-.019531-.179687-.019531-.261719-.386719-3.90625-.75-7.816406-1.085938-11.722656-.28125-3.113281-.542969-6.230468-.792969-9.34375-.335937-3.96875-.640625-7.941406-.921875-11.910156-.238281-3.15625-.457031-6.3125-.65625-9.46875-.273437-4.023438-.523437-8.042969-.753906-12.078125-.125-2.214844-.238281-4.429687-.355469-6.644531-.0625-.992188-.105469-1.984375-.15625-2.980469-.113281-2.308594-.230469-4.617187-.335937-6.925781-3.019532-66.195313-1.316406-132.703125 5.078125-198.53125.054687-.5.472656-.917969.972656-.972656 44.773437-4.355469 90.164063-6.558594 134.929687-6.558594 44.773438 0 90.164063 2.203125 134.9375 6.558594.5.054687.917969.472656.972657.972656 8.703125 89.539062 8.703125 180.328125 0 269.867187zm0 0" fill="#ffd073"/><path d="m197.132812 157.820312c-1.210937.710938-2.320312 1.609376-3.292968 2.632813l-17.636719 18.652344-4.921875 5.203125-27.34375 28.953125-4.921875 5.203125-27.355469 28.933594-4.921875 5.203124-27.355469 28.933594-4.921874 5.214844-20.929688 22.152344c-5.054688-.441406-10.101562-.898438-15.140625-1.390625-.5-.042969-.917969-.460938-.972656-.960938-2.308594-23.710937-4-47.5-5.078125-71.335937l.367187-.34375 28.945313-27.347656 5.210937-4.917969 28.945313-27.347657 19.433594-9.445312 14.714843-22.820312 5.203125-4.921876 50.667969-5.882812zm0 0" fill="#2f373b"/><path d="m171.28125 184.3125-41.324219-41.324219 5.207031-4.921875 41.039063 41.039063zm0 0" fill="#ffd073"/><path d="m106.734375 252.605469-45.078125-45.082031 5.203125-4.921876 44.796875 44.796876zm0 0" fill="#ff9c40"/><path d="m79.382812 281.535156-4.921874 5.214844-41.628907-41.628906c-.0625-.992188-.105469-1.984375-.15625-2.980469-.113281-2.308594-.230469-4.617187-.335937-6.925781l.367187-.34375zm0 0" fill="#ff9c40"/><path d="m170.65625 137.253906-136.058594 136.058594c-.238281-3.15625-.457031-6.3125-.65625-9.46875l131.644532-131.644531zm0 0" fill="#fff"/><path d="m159.171875 125.78125-125.984375 125.984375c-.175781-3.207031-.355469-6.414063-.511719-9.625l121.429688-121.425781zm0 0" fill="#fff"/><path d="m182.128906 148.75-145.816406 145.816406c-.28125-3.113281-.542969-6.230468-.792969-9.34375l141.539063-141.539062zm0 0" fill="#fff"/><path d="m193.609375 160.210938-147.976563 147.980468c-2.414062-.21875-4.828124-.449218-7.242187-.679687-.5-.042969-.917969-.460938-.972656-.960938-.007813-.085937-.019531-.179687-.019531-.261719l151.144531-151.144531zm0 0" fill="#fff"/><path d="m95.808594 175.253906 14.507812-12.632812-2.242187-11.542969c-1.371094-7.046875 2.464843-14.070313 9.132812-16.734375l131.09375-52.351562c10.960938-4.378907 23.472657-1.804688 31.816407 6.539062 8.242187 8.242188 10.863281 20.5625 6.6875 31.445312l-8.144532 21.230469c-.75 1.949219-2.1875 3.554688-4.046875 4.511719-4.851562 2.496094-10.765625-.160156-12.121093-5.445312-.824219-3.203126-3.871094-5.320313-7.160157-4.96875l-1.230469.132812c-2.902343.308594-5.265624 2.476562-5.824218 5.339844l-13.585938 69.4375c-3.234375 16.527344-19.757812 26.882812-36.039062 22.589844l-61.523438-16.222657zm0 0" fill="#2880a8"/><path d="m205.246094 212.796875c-1.503906 0-3.015625-.199219-4.492188-.585937l-22.648437-5.972657c-20.804688-5.484375-39.777344-16.390625-54.988281-31.601562-3.261719-3.261719-3.078126-8.605469.398437-11.636719 2.144531-1.867188 3.128906-4.734375 2.585937-7.523438l-2.230468-11.496093c-.402344-2.070313.726562-4.136719 2.683594-4.921875l121.179687-48.390625c2.117187-.84375 4.34375-1.273438 6.617187-1.273438 4.757813 0 9.230469 1.84375 12.601563 5.195313 5.109375 5.082031 6.464844 12.847656 3.882813 19.574218l-2.578126 6.730469c-1.382812 3.601563-5.652343 4.933594-8.980468 2.980469-2.332032-1.363281-5.03125-2.136719-7.878906-2.136719-.550782 0-1.109376.03125-1.660157.089844l-1.140625.121094c-6.832031.730469-12.308594 5.753906-13.628906 12.496093l-12.558594 64.1875c-1.601562 8.207032-8.820312 14.164063-17.164062 14.164063zm0 0" fill="#6cb9d3"/><path d="m123.949219 115.097656-6.375-23.792968c-2.558594-9.546876-14.488281-12.742188-21.476563-5.753907l-17.417968 17.417969c-6.984376 6.988281-3.789063 18.917969 5.753906 21.476562l23.796875 6.375c9.542969 2.558594 18.277343-6.175781 15.71875-15.722656zm0 0" fill="#2880a8"/><path d="m111.609375 121.507812c-.273437 0-.558594-.042968-.851563-.121093l-23.796874-6.375c-1.488282-.398438-2-1.53125-2.171876-2.171875-.171874-.640625-.292968-1.875.796876-2.964844l17.417968-17.421875c.601563-.601563 1.316406-.90625 2.121094-.90625.246094 0 2.421875.066406 3.019531 2.285156l6.375 23.792969c.257813.976562.089844 1.863281-.507812 2.644531-.597657.773438-1.492188 1.238281-2.402344 1.238281zm0 0" fill="#6cb9d3"/><path d="m179.730469 92.757812-6.375-23.792968c-2.558594-9.546875-14.488281-12.742188-21.476563-5.753906l-17.417968 17.417968c-6.988282 6.988282-3.789063 18.917969 5.753906 21.476563l23.792968 6.375c9.546876 2.558593 18.28125-6.175781 15.722657-15.722657zm0 0" fill="#2880a8"/><path d="m167.390625 99.167969c-.273437 0-.558594-.042969-.855469-.121094l-23.792968-6.375c-1.488282-.398437-2-1.53125-2.171876-2.171875-.171874-.640625-.292968-1.875.796876-2.96875l17.417968-17.417969c.601563-.601562 1.316406-.90625 2.121094-.90625.246094 0 2.421875.066407 3.015625 2.285157l6.375 23.792968c.261719.976563.089844 1.863282-.507813 2.644532-.59375.773437-1.492187 1.238281-2.398437 1.238281zm0 0" fill="#6cb9d3"/><path d="m235.511719 70.417969-6.375-23.792969c-2.558594-9.546875-14.488281-12.742188-21.476563-5.753906l-17.417968 17.417968c-6.988282 6.988282-3.789063 18.917969 5.753906 21.476563l23.792968 6.375c9.546876 2.554687 18.28125-6.175781 15.722657-15.722656zm0 0" fill="#2880a8"/><path d="m223.171875 76.824219c-.273437 0-.558594-.039063-.855469-.117188l-23.792968-6.375c-1.488282-.398437-2-1.53125-2.171876-2.171875-.171874-.640625-.296874-1.875.796876-2.96875l17.417968-17.417968c.601563-.601563 1.316406-.90625 2.121094-.90625.246094 0 2.421875.0625 3.015625 2.285156l6.375 23.792968c.261719.976563.089844 1.863282-.507813 2.644532-.59375.773437-1.492187 1.234375-2.398437 1.234375zm0 0" fill="#6cb9d3"/><path d="m157.453125 145.167969c0 7.027343-5.695313 12.726562-12.722656 12.726562-7.027344 0-12.726563-5.699219-12.726563-12.726562 0-7.027344 5.699219-12.722657 12.726563-12.722657 7.027343 0 12.722656 5.695313 12.722656 12.722657zm0 0" fill="#2f373b"/><path d="m205.40625 126.867188c0 7.027343-5.695312 12.726562-12.722656 12.726562s-12.726563-5.699219-12.726563-12.726562c0-7.027344 5.699219-12.722657 12.726563-12.722657s12.722656 5.695313 12.722656 12.722657zm0 0" fill="#2f373b"/><path d="m253.363281 108.566406c0 7.03125-5.699219 12.726563-12.726562 12.726563-7.027344 0-12.722657-5.695313-12.722657-12.726563 0-7.027344 5.695313-12.722656 12.722657-12.722656 7.027343 0 12.726562 5.695312 12.726562 12.722656zm0 0" fill="#2f373b"/><path d="m113.414062 233.265625c0-2.40625 1.828126-4.523437 4.617188-4.523437h19.914062c13.175782 0 23.660157 4.90625 23.660157 20.585937 0 10.773437-4.902344 16.929687-11.636719 19.523437l11.734375 21.257813c.382813.578125.480469 1.253906.480469 1.734375 0 3.75-5 7.789062-9.425782 7.789062-1.921874 0-3.75-.769531-4.808593-2.789062l-13.179688-25.585938h-6.347656v23.183594c0 3.078125-3.753906 4.617188-7.503906 4.617188s-7.503907-1.539063-7.503907-4.617188zm15.007813 8.558594v17.890625h9.523437c5.386719 0 8.65625-2.210938 8.65625-8.945313s-3.269531-8.945312-8.65625-8.945312zm0 0" fill="#fff"/><path d="m209.796875 272.894531v6.734375c0 10.675782-10.199219 20.390625-21.933594 20.390625s-21.832031-9.621093-21.832031-20.390625v-6.734375c0-10.773437 9.808594-20.199219 21.832031-20.199219 11.734375 0 21.933594 9.136719 21.933594 20.199219zm-14.910156 0c0-3.65625-3.175781-7.214843-7.023438-7.214843-3.847656 0-6.925781 3.558593-6.925781 7.214843v6.734375c0 3.84375 3.078125 7.40625 6.925781 7.40625 3.847657 0 7.023438-3.5625 7.023438-7.40625zm0 0" fill="#fff"/><path d="m215.082031 279.628906v-6.542968c0-11.445313 6.539063-20.390626 21.640625-20.390626 9.425782 0 16.257813 3.75 16.257813 7.984376 0 2.789062-2.308594 7.308593-5.769531 7.308593-2.308594 0-4.042969-2.308593-9.234376-2.308593-5.773437 0-7.984374 2.695312-7.984374 7.40625v6.542968c0 4.710938 2.210937 7.40625 8.078124 7.40625 5.195313 0 6.542969-2.597656 9.136719-2.597656 4.039063 0 6.351563 4.230469 6.351563 7.117188 0 4.328124-7.3125 8.464843-16.644532 8.464843-15.292968 0-21.832031-8.753906-21.832031-20.390625zm0 0" fill="#fff"/><path d="m288.949219 271.835938 13.179687 18.46875c.480469.769531.769532 1.539062.769532 2.308593 0 3.460938-5.003907 7.40625-8.5625 7.40625-1.441407 0-2.691407-.578125-3.558594-1.828125l-11.636719-17.21875-4.90625 4.523438v8.945312c0 2.304688-3.367187 4.617188-7.597656 4.617188-4.234375 0-7.3125-2.308594-7.3125-4.617188v-62.8125c0-2.695312 3.078125-4.523437 7.3125-4.523437 4.230469 0 7.597656 1.828125 7.597656 4.523437v37.703125l15.964844-15.484375c.769531-.769531 1.828125-1.15625 2.886719-1.15625 3.269531 0 7.214843 3.945313 7.214843 7.121094 0 .960938-.382812 1.824219-1.152343 2.59375zm0 0" fill="#fff"/></svg>