<svg height="512pt" viewBox="0 0 512 512.001" width="512pt" xmlns="http://www.w3.org/2000/svg"><path d="m484.359375 504.480469h-192.332031c-10.738282 0-19.441406-8.707031-19.441406-19.445313 0-10.734375 8.703124-19.441406 19.441406-19.441406h192.332031c10.738281 0 19.441406 8.707031 19.441406 19.441406 0 10.738282-8.707031 19.445313-19.441406 19.445313zm0 0" fill="#1ca2e5"/><path d="m484.359375 465.59375h-27.082031c10.738281 0 19.441406 8.707031 19.441406 19.441406 0 10.738282-8.703125 19.441406-19.441406 19.441406h27.082031c10.738281 0 19.441406-8.703124 19.441406-19.441406 0-10.738281-8.707031-19.441406-19.441406-19.441406zm0 0" fill="#1691c1"/><path d="m7.523438 131.710938h247.96875v247.964843h-247.96875zm0 0" fill="#e93234"/><path d="m228.410156 131.710938h27.078125v247.964843h-27.078125zm0 0" fill="#bf161c"/><path d="m255.488281 92.011719-30.992187 18.796875-30.996094-18.796875-30.996094 18.796875-30.996094-18.796875-30.996093 18.796875-30.996094-18.796875-30.996094 18.796875-30.996093-18.796875v39.699219h247.964843zm0 0" fill="#992228"/><path d="m228.410156 108.433594v23.277344h27.078125v-39.699219zm0 0" fill="#721c28"/><path d="m255.488281 419.375-30.992187-18.796875-30.996094 18.796875-30.996094-18.796875-30.996094 18.796875-30.996093-18.796875-30.996094 18.796875-30.996094-18.796875-30.996093 18.796875v-39.699219h247.964843zm0 0" fill="#992228"/><path d="m228.410156 379.675781v23.277344l27.078125 16.421875v-39.699219zm0 0" fill="#721c28"/><path d="m410.0625 50.921875v-21.527344c0-12.078125-9.789062-21.871093-21.871094-21.871093-12.078125 0-21.871094 9.789062-21.871094 21.871093v21.527344c-38.578124 9.746094-67.128906 44.679687-67.128906 86.285156v328.386719h178v-328.386719c0-41.605469-28.550781-76.539062-67.128906-86.285156zm0 0" fill="#6bdafc"/><path d="m410.0625 50.921875v-21.527344c0-12.082031-9.789062-21.871093-21.871094-21.871093-5.113281 0-9.8125 1.761718-13.539062 4.703124 5.070312 4.003907 8.332031 10.203126 8.332031 17.167969v21.527344c38.574219 9.746094 67.125 44.679687 67.125 86.285156v328.386719h27.082031v-328.386719c0-41.605469-28.550781-76.539062-67.128906-86.285156zm0 0" fill="#1cc8e5"/><path d="m224.105469 255.691406c0 51.144532-41.457031 92.601563-92.597657 92.601563-51.144531 0-92.601562-41.457031-92.601562-92.601563 0-51.140625 41.457031-92.597656 92.601562-92.597656 51.140626 0 92.597657 41.457031 92.597657 92.597656zm0 0" fill="#992228"/><path d="m193.660156 255.691406c0 34.328125-27.828125 62.15625-62.152344 62.15625-34.328124 0-62.15625-27.828125-62.15625-62.15625 0-34.324218 27.828126-62.152344 62.15625-62.152344 34.324219 0 62.152344 27.828126 62.152344 62.152344zm0 0" fill="#e93234"/><path d="m484.714844 458.082031v-320.875c0-42.28125-27.320313-79.289062-67.128906-91.960937v-15.851563c0-16.210937-13.1875-29.394531-29.394532-29.394531-16.207031 0-29.394531 13.183594-29.394531 29.394531v15.851563c-39.804687 12.671875-67.125 49.679687-67.125 91.960937v34.078125c0 4.15625 3.367187 7.523438 7.519531 7.523438 4.15625 0 7.523438-3.367188 7.523438-7.523438v-34.078125c0-37.367187 25.269531-69.851562 61.449218-78.992187 3.339844-.84375 5.679688-3.847656 5.679688-7.292969v-21.527344c0-7.914062 6.4375-14.351562 14.347656-14.351562 7.914063 0 14.351563 6.4375 14.351563 14.351562v21.527344c0 3.445313 2.339843 6.449219 5.679687 7.292969 36.179688 9.140625 61.445313 41.625 61.445313 78.992187v320.863281h-162.953125v-256.695312c0-4.15625-3.367188-7.523438-7.523438-7.523438-4.152344 0-7.519531 3.367188-7.519531 7.523438v256.707031c-14.707031.191407-26.609375 12.203125-26.609375 26.953125 0 14.871094 12.09375 26.964844 26.964844 26.964844h192.332031c14.867187 0 26.964844-12.09375 26.964844-26.964844 0-14.75-11.90625-26.761718-26.609375-26.953125zm-.355469 38.875h-192.332031c-6.574219 0-11.921875-5.347656-11.921875-11.921875 0-6.574218 5.347656-11.917968 11.921875-11.917968h192.332031c6.570313 0 11.917969 5.34375 11.917969 11.917968 0 6.574219-5.347656 11.921875-11.917969 11.921875zm0 0"/><path d="m259.179688 85.457031c-2.363282-1.332031-5.269532-1.285156-7.589844.121094l-27.09375 16.429687-27.097656-16.429687c-2.394532-1.453125-5.402344-1.453125-7.800782 0l-27.09375 16.429687-27.097656-16.429687c-2.394531-1.453125-5.402344-1.453125-7.796875 0l-27.097656 16.429687-27.097657-16.429687c-2.394531-1.453125-5.402343-1.453125-7.796874 0l-27.097657 16.429687-27.097656-16.429687c-2.320313-1.40625-5.222656-1.453125-7.589844-.121094-2.367187 1.332031-3.832031 3.835938-3.832031 6.554688v90.464843c0 4.15625 3.371094 7.523438 7.523438 7.523438 4.15625 0 7.523437-3.367188 7.523437-7.523438v-43.246093h232.921875v232.921875h-232.921875v-159.585938c0-4.152344-3.371094-7.519531-7.523437-7.519531-4.15625 0-7.523438 3.367187-7.523438 7.519531v206.804688c0 2.71875 1.464844 5.222656 3.832031 6.554687 2.367188 1.335938 5.269531 1.289063 7.589844-.121093l27.097656-16.429688 27.09375 16.429688c2.398438 1.453124 5.402344 1.453124 7.800781 0l27.09375-16.429688 27.097657 16.429688c1.199219.726562 2.546875 1.089843 3.898437 1.089843 1.351563 0 2.703125-.363281 3.902344-1.089843l27.09375-16.429688 27.097656 16.429688c2.394532 1.453124 5.402344 1.453124 7.800782 0l27.09375-16.429688 27.097656 16.429688c2.320312 1.410156 5.222656 1.453124 7.589844.121093 2.367187-1.332031 3.832031-3.835937 3.832031-6.554687v-327.359375c0-2.71875-1.464844-5.222657-3.832031-6.554688zm-244.132813 38.730469v-18.820312l19.570313 11.871093c2.398437 1.453125 5.40625 1.453125 7.800781 0l27.097656-16.429687 27.09375 16.429687c2.398437 1.453125 5.402344 1.453125 7.800781 0l27.09375-16.429687 27.097656 16.429687c2.394532 1.453125 5.402344 1.453125 7.800782 0l27.09375-16.429687 27.097656 16.429687c2.394531 1.453125 5.402344 1.453125 7.796875 0l19.574219-11.871093v18.820312zm232.921875 281.828125-19.574219-11.871094c-2.398437-1.453125-5.40625-1.453125-7.800781 0l-27.09375 16.433594-27.097656-16.433594c-1.199219-.726562-2.550782-1.089843-3.898438-1.089843-1.351562 0-2.703125.363281-3.902344 1.089843l-27.09375 16.433594-27.097656-16.433594c-2.394531-1.449219-5.402344-1.449219-7.800781 0l-27.09375 16.433594-27.097656-16.433594c-2.394531-1.453125-5.402344-1.453125-7.796875 0l-19.574219 11.871094v-18.816406h232.921875zm0 0"/><path d="m231.628906 255.691406c0-55.207031-44.914062-100.121094-100.121094-100.121094-55.210937 0-100.125 44.914063-100.125 100.121094 0 55.210938 44.914063 100.125 100.125 100.125 55.207032 0 100.121094-44.914062 100.121094-100.125zm-185.199218 0c0-46.910156 38.164062-85.078125 85.078124-85.078125 46.910157 0 85.078126 38.167969 85.078126 85.078125 0 46.914063-38.167969 85.078125-85.078126 85.078125-46.914062 0-85.078124-38.164062-85.078124-85.078125zm0 0"/><path d="m166.601562 315.894531c3.589844-2.09375 4.796876-6.699219 2.703126-10.289062-2.097657-3.585938-6.703126-4.792969-10.289063-2.699219-8.3125 4.851562-17.824219 7.417969-27.507813 7.417969-30.125 0-54.632812-24.507813-54.632812-54.632813s24.507812-54.632812 54.632812-54.632812c30.121094 0 54.628907 24.507812 54.628907 54.632812 0 9.757813-2.601563 19.332032-7.523438 27.6875-2.109375 3.582032-.917969 8.191406 2.664063 10.300782 3.578125 2.109374 8.1875.917968 10.296875-2.664063 6.285156-10.664063 9.609375-22.882813 9.609375-35.324219 0-38.421875-31.257813-69.675781-69.675782-69.675781-38.421874 0-69.675781 31.253906-69.675781 69.675781s31.253907 69.675782 69.675781 69.675782c12.347657 0 24.484376-3.273438 35.09375-9.472657zm0 0"/></svg>