<svg height="512pt" viewBox="0 0 512 512" width="512pt" xmlns="http://www.w3.org/2000/svg"><path d="m512 256c0 1.160156-.011719 2.332031-.019531 3.488281-1.871094 139.777344-115.753907 252.511719-255.980469 252.511719-39.632812 0-77.15625-9.007812-110.644531-25.078125 0 0 0-.011719-.007813 0-11.859375-5.695313-23.230468-12.289063-33.980468-19.6875h-.011719c-44.335938-30.40625-78.609375-74.40625-96.808594-125.992187-3.59375-10.15625-6.5625-20.617188-8.851563-31.316407-3.730468-17.386719-5.695312-35.421875-5.695312-53.925781 0-141.386719 114.613281-256 256-256 2.414062 0 4.816406.03125 7.210938.105469 18.546874.511719 36.601562 2.996093 53.957031 7.25 95.703125 23.46875 170.277343 100.738281 189.804687 197.925781 3.304688 16.394531 5.027344 33.351562 5.027344 50.71875zm0 0" fill="#2f373b"/><path d="m512 256c0 1.160156-.011719 2.332031-.019531 3.488281-15.203125 13.941407-32.8125 25.296875-52.132813 33.386719-21.335937 8.921875-44.75 13.855469-69.328125 13.855469-99.265625 0-179.742187-80.46875-179.742187-179.734375 0-49.539063 20.042968-94.386719 52.433594-126.894532 15.464843.429688 30.582031 2.226563 45.242187 5.289063 116.226563 24.191406 203.546875 127.207031 203.546875 250.609375zm0 0" fill="#ea2f69"/><path d="m512 256c0 1.160156-.011719 2.332031-.019531 3.488281-15.203125 13.941407-32.8125 25.296875-52.132813 33.386719-2.527344.101562-5.078125.15625-7.636718.15625-99.265626 0-179.742188-80.46875-179.742188-179.734375 0-40.5 13.394531-77.867187 35.984375-107.90625 116.226563 24.191406 203.546875 127.207031 203.546875 250.609375zm0 0" fill="#ff648d"/><path d="m506.972656 205.28125c-25.191406 37.417969-67.949218 62.023438-116.453125 62.023438-77.488281 0-140.308593-62.816407-140.308593-140.308594 0-50.605469 26.792968-94.957032 66.957031-119.640625 95.703125 23.46875 170.277343 100.738281 189.804687 197.925781zm0 0" fill="#d174b7"/><path d="m317.140625 7.375c-7.074219 4.347656-13.722656 9.320312-19.894531 14.816406-15.738282 26.710938-24.777344 57.847656-24.777344 91.105469 0 61.523437 30.921875 115.816406 78.0625 148.214844 12.671875 3.765625 26.09375 5.792969 39.988281 5.792969 48.507813 0 91.261719-24.605469 116.457031-62.023438v-.003906c-19.539062-97.1875-94.125-174.457032-189.835937-197.902344zm0 0" fill="#ed96d0"/><path d="m191.570312 152.753906c3.464844 8.542969 3.925782 17.554688 1.898438 25.875-3.128906 12.722656-12.09375 23.8125-25.15625 29.109375-6.730469 2.730469-13.765625 3.597657-20.519531 2.839844-.367188-.042969-1.28125-.15625-2.238281-.265625-.957032-.105469-1.949219-.210938-2.445313-.246094-6.914063-.445312-20.578125-.113281-34.929687 6.992188-20.496094 10.148437-40.308594 3.863281-50.109376-7.601563-9.785156-11.453125-24.160156-5.253906-24.160156-5.253906 11.546875-14.976563 29.441406-1.65625 47.746094-9.078125 17.574219-7.125 16.847656-36 39.726562-55.605469.925782-.804687 1.902344-1.582031 2.910157-2.355469 3.535156-3.15625 7.65625-5.785156 12.292969-7.667968 21.605468-8.757813 46.226562 1.65625 54.984374 23.257812zm0 0" fill="#fcf8f2"/><path d="m157.664062 159.15625c-3.390624-8.363281-10.273437-13.46875-15.371093-11.398438-5.101563 2.066407-6.484375 10.523438-3.09375 18.886719s10.273437 13.464844 15.375 11.398438c5.097656-2.070313 6.484375-10.527344 3.089843-18.886719zm0 0" fill="#2f373b"/><path d="m183.109375 148.835938c-3.394531-8.363282-10.277344-13.464844-15.375-11.398438-5.101563 2.070312-6.484375 10.523438-3.09375 18.886719s10.273437 13.46875 15.375 11.398437c5.097656-2.066406 6.484375-10.523437 3.09375-18.886718zm0 0" fill="#2f373b"/><path d="m153.542969 157.398438c-1.226563-3.019532-3.347657-5.011719-4.742188-4.445313s-1.53125 3.472656-.304687 6.492187c1.222656 3.019532 3.347656 5.011719 4.742187 4.445313 1.390625-.566406 1.527344-3.472656.304688-6.492187zm0 0" fill="#fcf8f2"/><path d="m179.152344 147.011719c-1.222656-3.019531-3.347656-5.007813-4.742188-4.445313-1.390625.566406-1.53125 3.472656-.304687 6.492188 1.222656 3.019531 3.347656 5.011718 4.742187 4.445312 1.394532-.5625 1.53125-3.472656.304688-6.492187zm0 0" fill="#fcf8f2"/><path d="m193.46875 178.628906c-3.128906 12.722656-12.09375 23.8125-25.15625 29.109375-6.730469 2.730469-13.765625 3.597657-20.519531 2.839844-.367188-.042969-1.28125-.15625-2.238281-.265625-.957032-.105469-1.949219-.210938-2.445313-.246094-6.914063-.445312-20.578125-.113281-34.929687 6.992188-20.496094 10.148437-40.308594 3.863281-50.109376-7.601563-9.785156-11.453125-24.160156-5.253906-24.160156-5.253906 11.546875-14.976563 29.441406-1.65625 47.746094-9.078125 17.574219-7.125 16.847656-36 39.726562-55.605469 0 0-8.796874 20.773438 7.402344 40.171875 16.183594 19.390625 48.605469 13.585938 64.671875-1.070312zm0 0" fill="#eae0d3"/><path d="m232.464844 309.015625c3.460937 8.539063 3.925781 17.554687 1.898437 25.871094-3.128906 12.726562-12.09375 23.816406-25.15625 29.109375-6.730469 2.730468-13.765625 3.597656-20.519531 2.84375-.367188-.046875-1.28125-.160156-2.238281-.265625-.960938-.109375-1.949219-.214844-2.449219-.25-6.910156-.445313-20.578125-.113281-34.925781 6.992187-20.496094 10.148438-40.308594 3.863282-50.109375-7.597656-9.789063-11.457031-24.164063-5.253906-24.164063-5.253906 11.550781-14.980469 29.445313-1.660156 47.746094-9.078125 17.574219-7.128907 16.851563-36.003907 39.726563-55.605469.925781-.804688 1.90625-1.585938 2.914062-2.355469 3.535156-3.160156 7.652344-5.789062 12.292969-7.667969 21.601562-8.761718 46.222656 1.652344 54.984375 23.257813zm0 0" fill="#fcf8f2"/><path d="m198.5625 315.410156c-3.390625-8.363281-10.273438-13.464844-15.375-11.398437-5.097656 2.070312-6.484375 10.523437-3.09375 18.886719 3.394531 8.363281 10.277344 13.464843 15.375 11.398437 5.101562-2.066406 6.484375-10.523437 3.09375-18.886719zm0 0" fill="#2f373b"/><path d="m224.003906 305.09375c-3.390625-8.363281-10.273437-13.464844-15.375-11.398438-5.097656 2.066407-6.484375 10.523438-3.089844 18.886719 3.390626 8.363281 10.273438 13.464844 15.371094 11.398438 5.101563-2.070313 6.484375-10.523438 3.09375-18.886719zm0 0" fill="#2f373b"/><path d="m194.441406 313.652344c-1.226562-3.019532-3.347656-5.007813-4.742187-4.441406-1.394531.5625-1.53125 3.46875-.308594 6.488281 1.226563 3.023437 3.347656 5.011719 4.742187 4.445312 1.394532-.5625 1.53125-3.46875.308594-6.492187zm0 0" fill="#fcf8f2"/><path d="m220.046875 303.269531c-1.222656-3.023437-3.347656-5.011719-4.738281-4.445312-1.394532.5625-1.53125 3.472656-.308594 6.492187 1.226562 3.019532 3.347656 5.007813 4.742188 4.445313 1.394531-.566407 1.53125-3.472657.304687-6.492188zm0 0" fill="#fcf8f2"/><path d="m234.363281 334.886719c-3.128906 12.726562-12.09375 23.816406-25.15625 29.109375-6.730469 2.730468-13.765625 3.597656-20.519531 2.84375-.367188-.046875-1.28125-.160156-2.238281-.265625-.960938-.109375-1.949219-.214844-2.449219-.25-6.910156-.445313-20.578125-.113281-34.925781 6.992187-20.496094 10.148438-40.308594 3.863282-50.109375-7.597656-9.789063-11.457031-24.164063-5.253906-24.164063-5.253906 11.550781-14.980469 29.445313-1.660156 47.746094-9.078125 17.574219-7.128907 16.851563-36.003907 39.726563-55.605469 0 0-8.792969 20.769531 7.40625 40.167969 16.183593 19.394531 48.601562 13.589843 64.667968-1.066407zm0 0" fill="#eae0d3"/><path d="m384.628906 323.3125c3.464844 8.539062 3.925782 17.554688 1.898438 25.871094-3.125 12.726562-12.09375 23.8125-25.15625 29.109375-6.730469 2.730469-13.761719 3.597656-20.519532 2.84375-.367187-.046875-1.28125-.160157-2.238281-.265625-.957031-.109375-1.945312-.214844-2.445312-.25-6.914063-.445313-20.578125-.113282-34.925781 6.992187-20.5 10.148438-40.3125 3.863281-50.113282-7.597656-9.785156-11.457031-24.160156-5.253906-24.160156-5.253906 11.550781-14.980469 29.445312-1.660157 47.746094-9.078125 17.574218-7.128906 16.847656-36.003906 39.726562-55.605469.925782-.804687 1.90625-1.585937 2.914063-2.355469 3.53125-3.160156 7.652343-5.789062 12.292969-7.667968 21.601562-8.761719 46.222656 1.652343 54.980468 23.257812zm0 0" fill="#fcf8f2"/><path d="m350.726562 329.703125c-3.390624-8.363281-10.273437-13.464844-15.371093-11.398437-5.101563 2.070312-6.484375 10.523437-3.09375 18.886718 3.390625 8.363282 10.273437 13.464844 15.371093 11.398438 5.101563-2.070313 6.484376-10.523438 3.09375-18.886719zm0 0" fill="#2f373b"/><path d="m376.171875 319.386719c-3.390625-8.363281-10.277344-13.464844-15.375-11.398438-5.101563 2.066407-6.484375 10.523438-3.09375 18.886719s10.273437 13.464844 15.375 11.398438c5.097656-2.070313 6.484375-10.523438 3.09375-18.886719zm0 0" fill="#2f373b"/><path d="m346.605469 327.945312c-1.226563-3.019531-3.347657-5.007812-4.742188-4.445312-1.394531.566406-1.53125 3.472656-.304687 6.492188 1.222656 3.019531 3.347656 5.011718 4.738281 4.445312 1.394531-.566406 1.53125-3.472656.308594-6.492188zm0 0" fill="#fcf8f2"/><path d="m372.214844 317.5625c-1.226563-3.019531-3.347656-5.011719-4.742188-4.445312-1.394531.5625-1.53125 3.472656-.304687 6.492187 1.222656 3.019531 3.347656 5.007813 4.742187 4.445313 1.390625-.566407 1.527344-3.472657.304688-6.492188zm0 0" fill="#fcf8f2"/><path d="m386.527344 349.1875c-3.125 12.722656-12.09375 23.8125-25.15625 29.109375-6.730469 2.726563-13.761719 3.59375-20.519532 2.839844-.367187-.042969-1.28125-.15625-2.238281-.265625s-1.945312-.214844-2.445312-.25c-6.914063-.441406-20.578125-.109375-34.925781 6.992187-20.5 10.152344-40.3125 3.863281-50.113282-7.597656-9.785156-11.457031-24.160156-5.253906-24.160156-5.253906 11.550781-14.976563 29.445312-1.65625 47.746094-9.078125 17.574218-7.128906 16.847656-36 39.726562-55.605469 0 0-8.796875 20.769531 7.402344 40.171875 16.1875 19.390625 48.605469 13.585938 64.671875-1.070312zm0 0" fill="#eae0d3"/><path d="m229.847656 448.867188c-3.125 12.726562-12.101562 23.8125-25.164062 29.109374-6.726563 2.730469-13.761719 3.59375-20.511719 2.84375-.375-.042968-1.285156-.15625-2.246094-.261718-.949219-.113282-1.941406-.21875-2.445312-.25-6.78125-.4375-20.070313-.125-34.125 6.613281 0 0 0-.011719-.007813 0-11.859375-5.695313-23.230468-12.289063-33.980468-19.6875 2.203124-.375 4.429687-.96875 6.664062-1.867187 17.578125-7.128907 16.84375-35.996094 39.726562-55.609376.921876-.804687 1.902344-1.578124 2.917969-2.351562 3.53125-3.15625 7.648438-5.789062 12.285157-7.671875 21.609374-8.753906 46.226562 1.664063 54.984374 23.261719 3.46875 8.535156 3.925782 17.554687 1.902344 25.871094zm0 0" fill="#fcf8f2"/><path d="m194.050781 429.390625c-3.394531-8.363281-10.277343-13.464844-15.375-11.398437-5.101562 2.070312-6.484375 10.523437-3.09375 18.886718 3.390625 8.363282 10.273438 13.464844 15.375 11.398438 5.097657-2.066406 6.484375-10.523438 3.09375-18.886719zm0 0" fill="#2f373b"/><path d="m219.492188 419.074219c-3.390626-8.363281-10.273438-13.46875-15.375-11.398438-5.097657 2.066407-6.484376 10.523438-3.09375 18.886719 3.390624 8.363281 10.277343 13.464844 15.375 11.398438 5.097656-2.070313 6.484374-10.527344 3.09375-18.886719zm0 0" fill="#2f373b"/><path d="m189.925781 427.632812c-1.222656-3.019531-3.347656-5.007812-4.742187-4.445312-1.394532.566406-1.53125 3.472656-.304688 6.492188 1.222656 3.019531 3.347656 5.011718 4.742188 4.445312 1.394531-.5625 1.53125-3.472656.304687-6.492188zm0 0" fill="#fcf8f2"/><path d="m215.535156 417.25c-1.222656-3.019531-3.347656-5.011719-4.742187-4.445312-1.394531.566406-1.53125 3.472656-.304688 6.492187 1.222657 3.019531 3.347657 5.007813 4.742188 4.445313 1.394531-.566407 1.53125-3.472657.304687-6.492188zm0 0" fill="#fcf8f2"/><path d="m229.847656 448.867188c-3.125 12.726562-12.101562 23.8125-25.164062 29.109374-6.726563 2.730469-13.761719 3.59375-20.511719 2.84375-.375-.042968-1.285156-.15625-2.246094-.261718-.949219-.113282-1.941406-.21875-2.445312-.25-6.78125-.4375-20.070313-.125-34.125 6.613281-11.871094-5.695313-23.238281-12.289063-34-19.6875 2.214843-.363281 4.441406-.960937 6.675781-1.867187 17.578125-7.128907 16.84375-35.996094 39.726562-55.609376 0 0-8.796874 20.769532 7.398438 40.175782 16.1875 19.394531 48.609375 13.582031 64.679688-1.066406zm0 0" fill="#eae0d3"/><path d="m109.621094 299.144531c-3.125 12.726563-12.089844 23.8125-25.164063 29.109375-6.726562 2.726563-13.761719 3.59375-20.507812 2.84375-.367188-.042968-1.285157-.15625-2.25-.273437-.949219-.105469-1.941407-.207031-2.445313-.238281-6.90625-.453126-20.574218-.117188-34.917968 6.988281-3.292969 1.628906-6.574219 2.84375-9.792969 3.667969-3.59375-10.15625-6.5625-20.617188-8.851563-31.316407 10.179688-11.417969 13.042969-33.792969 31.839844-49.894531.929688-.800781 1.902344-1.578125 2.914062-2.351562 3.535157-3.152344 7.652344-5.785157 12.289063-7.667969 21.609375-8.757813 46.226563 1.648437 54.984375 23.257812 3.46875 8.539063 3.929688 17.554688 1.902344 25.875zm0 0" fill="#fcf8f2"/><path d="m73.820312 279.671875c-3.390624-8.363281-10.273437-13.46875-15.375-11.398437-5.097656 2.066406-6.484374 10.523437-3.089843 18.886718 3.390625 8.363282 10.273437 13.464844 15.371093 11.398438 5.101563-2.070313 6.484376-10.527344 3.09375-18.886719zm0 0" fill="#2f373b"/><path d="m99.265625 269.351562c-3.394531-8.359374-10.277344-13.464843-15.375-11.394531-5.101563 2.066407-6.484375 10.523438-3.09375 18.886719 3.390625 8.359375 10.273437 13.464844 15.375 11.394531 5.097656-2.066406 6.484375-10.523437 3.09375-18.886719zm0 0" fill="#2f373b"/><path d="m69.699219 277.914062c-1.226563-3.019531-3.347657-5.011718-4.742188-4.445312s-1.53125 3.472656-.304687 6.492188c1.222656 3.019531 3.347656 5.011718 4.738281 4.445312 1.394531-.566406 1.53125-3.472656.308594-6.492188zm0 0" fill="#fcf8f2"/><path d="m95.308594 267.527344c-1.222656-3.019532-3.347656-5.007813-4.742188-4.445313-1.394531.566407-1.53125 3.472657-.304687 6.492188 1.222656 3.019531 3.347656 5.011719 4.742187 4.445312 1.394532-.566406 1.53125-3.472656.304688-6.492187zm0 0" fill="#fcf8f2"/><path d="m109.621094 299.144531c-3.125 12.726563-12.089844 23.8125-25.164063 29.109375-6.726562 2.726563-13.761719 3.59375-20.507812 2.84375-.367188-.042968-1.285157-.15625-2.25-.273437-.949219-.105469-1.941407-.207031-2.445313-.238281-6.90625-.453126-20.574218-.117188-34.917968 6.988281-3.292969 1.628906-6.574219 2.84375-9.792969 3.667969-3.59375-10.15625-6.5625-20.617188-8.851563-31.316407 10.179688-11.417969 13.042969-33.792969 31.839844-49.894531 0 0-8.796875 20.773438 7.410156 40.175781 16.183594 19.394531 48.597656 13.585938 64.667969-1.074219zm0 0" fill="#eae0d3"/><path d="m306.246094 195.035156c3.460937 8.539063 3.925781 17.550782 1.898437 25.871094-3.128906 12.722656-12.09375 23.8125-25.15625 29.109375-6.730469 2.730469-13.765625 3.597656-20.519531 2.839844-.367188-.042969-1.28125-.15625-2.238281-.265625-.957031-.105469-1.949219-.210938-2.449219-.246094-6.910156-.445312-20.578125-.113281-34.925781 6.992188-20.496094 10.148437-40.308594 3.863281-50.109375-7.597657-9.789063-11.457031-24.164063-5.257812-24.164063-5.257812 11.550781-14.976563 29.445313-1.65625 47.746094-9.074219 17.578125-7.128906 16.851563-36.003906 39.726563-55.609375.925781-.804687 1.90625-1.582031 2.914062-2.351563 3.535156-3.160156 7.65625-5.789062 12.292969-7.667968 21.605469-8.761719 46.222656 1.652344 54.984375 23.257812zm0 0" fill="#fcf8f2"/><path d="m272.339844 201.429688c-3.390625-8.363282-10.273438-13.464844-15.371094-11.398438-5.101562 2.066406-6.484375 10.523438-3.09375 18.886719s10.273438 13.464843 15.371094 11.398437c5.101562-2.070312 6.484375-10.523437 3.09375-18.886718zm0 0" fill="#2f373b"/><path d="m297.78125 191.109375c-3.390625-8.359375-10.273438-13.464844-15.371094-11.394531-5.101562 2.066406-6.484375 10.523437-3.09375 18.886718 3.390625 8.359376 10.273438 13.464844 15.375 11.394532 5.097656-2.066406 6.484375-10.523438 3.089844-18.886719zm0 0" fill="#2f373b"/><path d="m268.21875 199.671875c-1.226562-3.019531-3.347656-5.011719-4.742188-4.445313-1.394531.566407-1.53125 3.472657-.308593 6.492188 1.226562 3.019531 3.347656 5.011719 4.742187 4.445312 1.394532-.566406 1.53125-3.472656.308594-6.492187zm0 0" fill="#fcf8f2"/><path d="m293.828125 189.285156c-1.226563-3.019531-3.347656-5.007812-4.742187-4.445312-1.394532.566406-1.53125 3.472656-.304688 6.492187 1.222656 3.019531 3.347656 5.011719 4.738281 4.445313 1.394531-.566406 1.53125-3.472656.308594-6.492188zm0 0" fill="#fcf8f2"/><path d="m308.144531 220.90625c-3.128906 12.722656-12.09375 23.8125-25.15625 29.109375-6.730469 2.730469-13.765625 3.597656-20.519531 2.839844-.367188-.042969-1.28125-.15625-2.238281-.265625-.957031-.105469-1.949219-.210938-2.449219-.246094-6.910156-.445312-20.578125-.113281-34.925781 6.992188-20.496094 10.148437-40.308594 3.863281-50.109375-7.597657-9.789063-11.457031-24.164063-5.257812-24.164063-5.257812 11.550781-14.976563 29.445313-1.65625 47.746094-9.074219 17.578125-7.128906 16.851563-36.003906 39.726563-55.609375 0 0-8.792969 20.773437 7.40625 40.171875 16.183593 19.394531 48.601562 13.589844 64.667968-1.066406zm0 0" fill="#eae0d3"/></svg>