<svg height="512pt" viewBox="-8 0 512 512" width="512pt" xmlns="http://www.w3.org/2000/svg"><path d="m440.765625 0h-353.464844c-30.421875 0-55.167969 24.746094-55.167969 55.167969v401.664062c0 30.421875 24.746094 55.167969 55.167969 55.167969h353.464844c30.421875 0 55.167969-24.746094 55.167969-55.167969v-401.664062c0-30.421875-24.746094-55.167969-55.167969-55.167969zm0 0" fill="#663325"/><path d="m440.765625 0h-176.734375v512h176.734375c30.421875 0 55.167969-24.746094 55.167969-55.167969v-401.664062c0-30.421875-24.746094-55.167969-55.167969-55.167969zm0 0" fill="#3c1b13"/><path d="m376.5 265.101562h-48.199219c-8.285156 0-15 6.714844-15 15v72.296876c0 21.5625 17.539063 39.101562 39.097657 39.101562 21.5625 0 39.101562-17.539062 39.101562-39.101562v-72.296876c0-8.285156-6.714844-15-15-15zm0 0" fill="#a24603"/><path d="m256 210.445312c-8.285156 0-15 6.714844-15 15h-18.199219c0-8.285156-6.714843-15-15-15-8.285156 0-15 6.714844-15 15v126.953126c0 21.5625 17.539063 39.101562 39.097657 39.101562 21.5625 0 39.101562-17.539062 39.101562-39.101562v-126.953126c0-8.285156-6.714844-15-15-15zm0 0" fill="#d55f05"/><g fill="#c5e1e6"><path d="m55.164062 168.699219h-16.0625c-21.5625 0-39.101562 17.539062-39.101562 39.101562 0 21.558594 17.539062 39.097657 39.101562 39.097657h16.0625c21.5625 0 39.101563-17.539063 39.101563-39.097657 0-21.5625-17.539063-39.101562-39.101563-39.101562zm0 0"/><path d="m39.101562 150.5h16.0625c21.5625 0 39.101563-17.539062 39.101563-39.101562 0-21.558594-17.539063-39.097657-39.101563-39.097657h-16.0625c-21.5625 0-39.101562 17.539063-39.101562 39.097657 0 21.5625 17.539062 39.101562 39.101562 39.101562zm0 0"/><path d="m55.164062 265.101562h-16.0625c-21.5625 0-39.101562 17.539063-39.101562 39.097657 0 21.5625 17.539062 39.101562 39.101562 39.101562h16.0625c21.5625 0 39.101563-17.539062 39.101563-39.101562 0-21.558594-17.539063-39.097657-39.101563-39.097657zm0 0"/><path d="m55.164062 361.5h-16.0625c-21.5625 0-39.101562 17.539062-39.101562 39.101562 0 21.558594 17.539062 39.097657 39.101562 39.097657h16.0625c21.5625 0 39.101563-17.539063 39.101563-39.097657 0-21.5625-17.539063-39.101562-39.101563-39.101562zm0 0"/><path d="m280.101562 120.5c-8.285156 0-15 6.714844-15 15v48.199219c0 12.910156-7.414062 24.113281-18.203124 29.605469v-77.804688c0-8.285156-6.714844-15-15-15-8.28125 0-15 6.714844-15 15v77.804688c-10.785157-5.488282-18.199219-16.695313-18.199219-29.605469v-48.199219c0-8.285156-6.714844-15-15-15-8.28125 0-15 6.714844-15 15v48.199219c0 34.851562 28.355469 63.199219 63.199219 63.199219 34.851562 0 63.203124-28.351563 63.203124-63.199219v-48.199219c0-8.285156-6.71875-15-15-15zm0 0"/></g><path d="m328.300781 120.5c-8.285156 0-15 6.714844-15 15v144.601562c0 8.285157 6.714844 15 15 15h48.199219c8.285156 0 15-6.714843 15-15v-96.402343c0-34.847657-28.351562-63.199219-63.199219-63.199219zm0 0" fill="#acd9dd"/></svg>