<svg height="512pt" viewBox="-34 0 512 512" width="512pt" xmlns="http://www.w3.org/2000/svg"><path d="m378.65625 64.964844c-41.894531-41.894532-97.59375-64.964844-156.84375-64.964844s-114.953125 23.070312-156.84375 64.964844c-41.898438 41.894531-64.96875 97.597656-64.96875 156.84375 0 59.25 23.070312 114.949218 64.96875 156.84375l116.816406 116.820312c10.65625 10.65625 24.871094 16.527344 40.023438 16.527344s29.367187-5.867188 40.027344-16.527344l116.820312-116.820312c41.894531-41.890625 64.964844-97.59375 64.964844-156.84375 0-59.246094-23.070313-114.949219-64.964844-156.84375zm0 0" fill="#54e360"/><path d="m378.65625 64.964844c-41.894531-41.894532-97.59375-64.964844-156.84375-64.964844v512c15.148438 0 29.363281-5.867188 40.023438-16.527344l116.820312-116.820312c41.894531-41.890625 64.964844-97.59375 64.964844-156.84375 0-59.246094-23.070313-114.949219-64.964844-156.84375zm0 0" fill="#1fbf66"/><path d="m197.710938 176.253906c-8.28125 0-15 6.714844-15 15h-18.199219c0-8.285156-6.714844-15-15-15-8.285157 0-15 6.71875-15 15v126.957032c0 21.558593 17.539062 39.101562 39.101562 39.101562 21.558594 0 39.101563-17.542969 39.101563-39.101562v-126.957032c-.003906-8.285156-6.71875-15-15.003906-15zm0 0" fill="#d55f05"/><path d="m221.8125 86.308594c-8.285156 0-15 6.71875-15 15v48.199218c0 12.914063-7.414062 24.117188-18.203125 29.605469v-77.804687c0-8.28125-6.714844-15-15-15-8.28125 0-15 6.71875-15 15v77.804687c-10.785156-5.488281-18.199219-16.691406-18.199219-29.605469v-48.199218c0-8.28125-6.714844-15-15-15-8.28125 0-15 6.71875-15 15v48.199218c0 34.851563 28.351563 63.203126 63.199219 63.203126s63.203125-28.351563 63.203125-63.203126v-48.199218c0-8.285156-6.714844-15-15-15zm0 0" fill="#c5e1e6"/><path d="m318.210938 230.910156h-48.199219c-8.285157 0-15 6.714844-15 15v72.300782c0 21.558593 17.539062 39.101562 39.101562 39.101562 21.558594 0 39.101563-17.542969 39.101563-39.101562v-72.300782c-.003906-8.285156-6.71875-15-15.003906-15zm0 0" fill="#a24603"/><path d="m270.011719 86.308594c-8.285157 0-15 6.71875-15 15v144.601562c0 8.285156 6.714843 15 15 15h48.199219c8.285156 0 15-6.714844 15-15v-96.398437c0-34.851563-28.351563-63.203125-63.199219-63.203125zm0 0" fill="#acd9dd"/></svg>