<svg height="512pt" viewBox="0 0 512 512" width="512pt" xmlns="http://www.w3.org/2000/svg"><path d="m512 256c0 141.386719-114.613281 256-256 256s-256-114.613281-256-256 114.613281-256 256-256 256 114.613281 256 256zm0 0" fill="#f40000"/><path d="m93.828125 338.515625 173.230469 173.230469c136.253906-5.792969 244.941406-118.066406 244.941406-255.746094 0-20.949219-2.535156-41.304688-7.28125-60.796875l-92.582031-92.582031zm0 0" fill="#9b000a"/><path d="m93.828125 102.621094h318.289063v235.894531h-318.289063zm0 0" fill="#e7e7e7"/><path d="m278.609375 383.925781v-53.53125h-51.273437v53.53125h-24.269532v14.644531h99.8125v-14.644531zm0 0" fill="#e7e7e7"/><path d="m281.636719 398.570312h24.269531v-14.644531h-24.269531v-53.53125h-25.636719v68.175781zm0 0" fill="#8d9ca8"/><path d="m256 102.621094h156.136719v235.894531h-156.136719zm0 0" fill="#8d9ca8"/><path d="m106.738281 115.21875h292.464844v209.945312h-292.464844zm0 0" fill="#635656"/><path d="m256 115.21875h143.207031v209.945312h-143.207031zm0 0" fill="#372f2f"/><path d="m234.90625 254.101562v-44.90625h43.839844v-34.503906h-70.664063v-23.910156h95.835938v81.160156h-42.183594v22.160156zm26.828125 11.179688v25.078125h-26.828125v-25.078125zm0 0" fill="#fff5f5"/><g fill="#a2d8f4"><path d="m256 150.78125v23.910156h22.746094v34.503906h-22.746094v44.90625h5.734375v-22.160156h42.183594v-81.160156zm0 0"/><path d="m256 265.28125h5.734375v25.078125h-5.734375zm0 0"/></g></svg>