<?xml version="1.0" encoding="iso-8859-1"?>
<!-- Generator: Adobe Illustrator 19.0.0, SVG Export Plug-In . SVG Version: 6.00 Build 0)  -->
<svg version="1.1" id="Capa_1" xmlns="http://www.w3.org/2000/svg" xmlns:xlink="http://www.w3.org/1999/xlink" x="0px" y="0px"
	 viewBox="0 0 512 512" style="enable-background:new 0 0 512 512;" xml:space="preserve">
<linearGradient id="SVGID_1_" gradientUnits="userSpaceOnUse" x1="74.9807" y1="439.0193" x2="437.0193" y2="76.9807" gradientTransform="matrix(1 0 0 -1 0 514)">
	<stop  offset="0" style="stop-color:#AD1E9E"/>
	<stop  offset="1" style="stop-color:#5C0254"/>
</linearGradient>
<circle style="fill:url(#SVGID_1_);" cx="256" cy="256" r="256"/>
<linearGradient id="SVGID_2_" gradientUnits="userSpaceOnUse" x1="90.693" y1="261.8775" x2="421.307" y2="261.8775" gradientTransform="matrix(1 0 0 -1 0 514)">
	<stop  offset="0.001" style="stop-color:#FFFFFF"/>
	<stop  offset="1" style="stop-color:#FFB835"/>
</linearGradient>
<path style="fill:url(#SVGID_2_);" d="M312.467,94.314H199.533c-59.862,0-108.84,48.978-108.84,108.84v81.309
	c0,37.997,19.738,71.603,49.463,91.088v34.38l50.924-16.957c2.791,0.217,5.61,0.329,8.454,0.329h112.933
	c59.862,0,108.84-48.978,108.84-108.84v-81.309C421.307,143.292,372.329,94.314,312.467,94.314z"/>
<linearGradient id="SVGID_3_" gradientUnits="userSpaceOnUse" x1="211.148" y1="269.973" x2="323.749" y2="269.973" gradientTransform="matrix(1 0 0 -1 0 514)">
	<stop  offset="0" style="stop-color:#FF0014"/>
	<stop  offset="1" style="stop-color:#B80002"/>
</linearGradient>
<path style="fill:url(#SVGID_3_);" d="M234.911,278.185c0-8.818,1.439-16.742,4.32-23.762c2.878-7.021,8.818-13.138,17.822-18.362
	c2.7-1.62,6.029-3.464,9.991-5.536c3.958-2.067,7.83-4.544,11.611-7.426c3.78-2.878,6.974-6.253,9.586-10.126
	c2.607-3.869,3.915-8.324,3.915-13.366c0-3.781-0.721-7.109-2.16-9.991c-1.443-2.878-3.333-5.308-5.671-7.291
	c-2.342-1.979-5.089-3.464-8.236-4.455c-3.152-0.988-6.346-1.485-9.585-1.485c-3.962,0-7.561,0.675-10.801,2.025
	c-3.24,1.35-6.169,3.063-8.776,5.131c-2.612,2.071-4.953,4.413-7.021,7.02c-2.071,2.612-3.827,5.089-5.265,7.426l-23.493-16.202
	c2.338-5.577,5.443-10.531,9.316-14.851c3.869-4.32,8.278-7.966,13.232-10.936c4.949-2.971,10.303-5.219,16.066-6.751
	c5.759-1.527,11.7-2.295,17.822-2.295c6.839,0,13.59,0.991,20.252,2.97c6.658,1.983,12.645,5.131,17.957,9.451
	c5.307,4.32,9.628,9.856,12.961,16.607c3.329,6.751,4.995,14.809,4.995,24.167c0,5.763-0.675,10.847-2.025,15.256
	c-1.35,4.413-3.287,8.418-5.806,12.016c-2.523,3.603-5.493,6.844-8.91,9.721c-3.422,2.882-7.291,5.671-11.612,8.37
	c-3.603,2.161-7.202,4.232-10.801,6.211c-3.603,1.983-6.886,4.186-9.857,6.616c-2.97,2.43-5.4,5.223-7.29,8.371
	c-1.89,3.152-2.835,6.979-2.835,11.476L234.911,278.185L234.911,278.185z M235.451,341.102v-37.263h29.973v37.263H235.451z"/>
<g>
</g>
<g>
</g>
<g>
</g>
<g>
</g>
<g>
</g>
<g>
</g>
<g>
</g>
<g>
</g>
<g>
</g>
<g>
</g>
<g>
</g>
<g>
</g>
<g>
</g>
<g>
</g>
<g>
</g>
</svg>
