<?xml version="1.0" encoding="iso-8859-1"?>
<!-- Generator: Adobe Illustrator 21.0.0, SVG Export Plug-In . SVG Version: 6.00 Build 0)  -->
<svg xmlns="http://www.w3.org/2000/svg" xmlns:xlink="http://www.w3.org/1999/xlink" version="1.1" id="Capa_1" x="0px" y="0px" viewBox="0 0 512.501 512.501" style="enable-background:new 0 0 512.501 512.501;" xml:space="preserve" width="512" height="512">
<g>
	<g>
		<path style="fill:#FFF4F4;" d="M435.251,512.501h-358c-8.284,0-15-6.703-15-14.971V15.472c0-8.268,6.716-14.971,15-14.971h271.222    c3.974,0,7.785,1.574,10.597,4.375l86.778,86.453c2.819,2.809,4.403,6.62,4.403,10.596V497.53    C450.251,505.799,443.535,512.501,435.251,512.501z"/>
	</g>
	<path style="fill:#EEE1DC;" d="M445.848,91.33L359.07,4.876c-2.813-2.801-6.624-4.375-10.597-4.375h-92.472v512h179.25   c8.284,0,15-6.703,15-14.971V101.925C450.251,97.949,448.667,94.139,445.848,91.33z"/>
	<g>
		<path style="fill:#BE003B;" d="M327.972,277.641H184.293c-8.284,0-15-6.716-15-15c0-6.979,0.237-43.491,0.237-50.396    c0-6.092,3.684-11.578,9.322-13.884c29.451-12.043,54.069-17.654,77.459-17.654c0.017,0,0.03,0,0.047,0    c23.391,0.008,48.022,5.616,77.516,17.649c5.645,2.303,9.333,7.793,9.333,13.889c0,6.986-0.236,43.498-0.236,50.396    C342.972,270.925,336.256,277.641,327.972,277.641z"/>
	</g>
	<path style="fill:#97002C;" d="M333.875,198.356c-29.494-12.033-54.125-17.642-77.516-17.649c-0.017,0-0.03,0-0.047,0   c-0.103,0-0.208,0.004-0.311,0.005v96.93h71.971c8.284,0,15-6.716,15-15c0-6.898,0.236-43.41,0.236-50.396   C343.208,206.149,339.519,200.658,333.875,198.356z"/>
	<g>
		<path style="fill:#FFBB85;" d="M256.369,162.168c-23.277,0-42.214-18.938-42.214-42.214c0-23.277,18.938-42.215,42.214-42.215    s42.214,18.938,42.214,42.215C298.584,143.23,279.646,162.168,256.369,162.168z"/>
	</g>
	<path style="fill:#00DDC1;" d="M256.359,180.706c-0.017,0-0.03,0-0.047,0c-4.914,0-9.887,0.263-14.943,0.766v24.63   c0,8.284,6.716,15,15,15c8.284,0,15-6.716,15-15v-24.62C266.289,180.975,261.294,180.708,256.359,180.706z"/>
	<path style="fill:#002C3C;" d="M389.442,408.416v-7.207c7.824-0.508,14.019-6.998,14.019-14.95s-6.194-14.443-14.019-14.95v-7.219   c7.826-0.507,14.017-7.015,14.017-14.969c0-8.284-6.716-15-15-15h-14.017c-8.284,0-15,6.716-15,15v74.274c0,8.284,6.716,15,15,15   h14.215c8.284,0,15-6.716,15-15C403.657,415.375,397.361,408.824,389.442,408.416z"/>
	<path style="fill:#002C3C;" d="M332.388,334.145h-36.68c-8.284,0-15,6.716-15,15s6.716,15,15,15h3.34v59.251   c0,8.284,6.716,15,15,15s15-6.716,15-15v-59.251h3.34c8.284,0,15-6.716,15-15S340.673,334.145,332.388,334.145z"/>
	<g>
		<path style="fill:#00607F;" d="M147.954,438.399c-0.022,0-0.043,0-0.066,0c-6.476-0.028-12.202-4.209-14.202-10.368    l-24.105-74.259c-2.558-7.879,1.756-16.34,9.636-18.898c7.879-2.556,16.34,1.756,18.898,9.636l10.047,30.952l10.349-30.96    c2.626-7.857,11.124-12.097,18.981-9.471c7.857,2.627,12.097,11.125,9.471,18.982l-24.784,74.142    C160.133,434.275,154.402,438.399,147.954,438.399z"/>
	</g>
	<g>
		<path style="fill:#00607F;" d="M240.178,438.374h-10.394c-16.277,0-29.519-13.242-29.519-29.52v-45.19    c0-16.277,13.242-29.52,29.519-29.52h10.394c16.277,0,29.519,13.242,29.519,29.52v45.19    C269.697,425.132,256.455,438.374,240.178,438.374z M230.265,408.374h9.432v-44.229h-9.432V408.374z M240.178,364.145h0.01    H240.178z"/>
	</g>
	<g>
		<path style="fill:#CCBEB9;" d="M435.251,117.001h-87c-8.284,0-15-6.716-15-15v-87c0-6.067,3.655-11.536,9.26-13.858    c5.606-2.323,12.057-1.038,16.347,3.252l87,87c4.29,4.29,5.573,10.741,3.251,16.347    C446.787,113.347,441.317,117.001,435.251,117.001z"/>
	</g>
	<path style="fill:#F5A86C;" d="M256.369,77.739c-0.124,0-0.245,0.008-0.369,0.009v84.41c0.123,0.001,0.245,0.01,0.369,0.01   c23.277,0,42.214-18.938,42.214-42.214C298.584,96.677,279.646,77.739,256.369,77.739z"/>
	<path style="fill:#00AB94;" d="M256.359,180.706c-0.017,0-0.03,0-0.047,0c-0.103,0-0.208,0.004-0.311,0.004v40.374   c0.124,0.003,0.244,0.019,0.368,0.019c8.284,0,15-6.716,15-15v-24.62C266.289,180.975,261.294,180.708,256.359,180.706z"/>
	<path style="fill:#002C3C;" d="M256.001,338.763v94.993c8.225-5.245,13.697-14.443,13.697-24.901v-45.19   C269.697,353.206,264.226,344.008,256.001,338.763z"/>
</g>















</svg>
