<?xml version="1.0" encoding="iso-8859-1"?>
<!-- Generator: Adobe Illustrator 21.0.0, SVG Export Plug-In . SVG Version: 6.00 Build 0)  -->
<svg xmlns="http://www.w3.org/2000/svg" xmlns:xlink="http://www.w3.org/1999/xlink" version="1.1" id="Capa_1" x="0px" y="0px" viewBox="0 0 511.997 511.997" style="enable-background:new 0 0 511.997 511.997;" xml:space="preserve" width="512" height="512">
<g>
	<g>
		<path style="fill:#FFF4F4;" d="M364.999,246.001h-218c-8.284,0-15-6.716-15-15V15c0-8.284,6.716-15,15-15h174.434    c3.959,0,7.757,1.565,10.566,4.354l43.566,43.749c2.838,2.816,4.434,6.648,4.434,10.646v172.253    C379.999,239.286,373.283,246.001,364.999,246.001z"/>
	</g>
	<path style="fill:#EEE1DC;" d="M375.565,48.102L331.999,4.354C329.189,1.565,325.391,0,321.432,0h-65.434v246.001h109   c8.284,0,15-6.716,15-15V58.749C379.999,54.751,378.403,50.918,375.565,48.102z"/>
	<g>
		<path style="fill:#00607F;" d="M440.999,511.997h-370c-8.284,0-15-6.716-15-15V302c0-8.284,6.716-15,15-15h370    c8.284,0,15,6.716,15,15v194.997C455.999,505.281,449.283,511.997,440.999,511.997z"/>
	</g>
	<path style="fill:#002C3C;" d="M440.999,287h-185v224.997h185c8.284,0,15-6.716,15-15V302C455.999,293.716,449.283,287,440.999,287   z"/>
	<g>
		<path style="fill:#BE003B;" d="M240.737,173.973c-4.94,0-9.68-1.962-13.177-5.458l-21.119-21.119    c-7.278-7.277-7.278-19.076,0-26.353c7.277-7.278,19.076-7.278,26.353,0l7.69,7.69l38.472-39.956    c7.137-7.414,18.933-7.639,26.349-0.499c7.413,7.138,7.637,18.934,0.499,26.348l-51.643,53.637    c-3.471,3.604-8.245,5.661-13.248,5.709C240.854,173.972,240.795,173.973,240.737,173.973z"/>
	</g>
	<g>
		<path style="fill:#B3B3B3;" d="M370.568,65.767h-44.639c-5.208,0-9.431-4.373-9.431-9.767V9.767c0-3.951,2.298-7.512,5.822-9.024    c3.523-1.512,7.581-0.676,10.277,2.117l44.639,46.232c2.697,2.793,3.504,6.995,2.045,10.644    C377.821,63.387,374.383,65.767,370.568,65.767z"/>
	</g>
	<g>
		<path style="fill:#FFDA2D;" d="M482.999,317h-454c-8.284,0-15-6.716-15-15v-71c0-8.284,6.716-15,15-15h454c8.284,0,15,6.716,15,15    v71C497.999,310.284,491.283,317,482.999,317z"/>
	</g>
	<path style="fill:#EEE1DC;" d="M386.999,439.997h-0.502v-10.499h0.288c8.284,0,15-6.716,15-15s-6.716-15-15-15h-0.288V389h0.286   c8.284,0,15-6.716,15-15s-6.716-15-15-15h-15.286c-8.284,0-15,6.716-15,15v80.997c0,8.284,6.716,15,15,15h15.502   c8.284,0,15-6.716,15-15S395.283,439.997,386.999,439.997z"/>
	<path style="fill:#EEE1DC;" d="M333.998,359.026h-39.999c-8.284,0-15,6.716-15,15s6.716,15,15,15h4.999v65.971   c0,8.284,6.716,15,15,15s15-6.716,15-15v-65.971h5c8.284,0,15-6.716,15-15S342.282,359.026,333.998,359.026z"/>
	<g>
		<path style="fill:#00DDC1;" d="M151.565,470c-0.022,0-0.044,0-0.066,0c-6.476-0.028-12.202-4.209-14.201-10.369l-26.287-80.979    c-2.559-7.879,1.756-16.341,9.635-18.898c7.886-2.56,16.342,1.757,18.898,9.636l12.229,37.672l12.592-37.669    c2.627-7.856,11.122-12.098,18.982-9.471c7.856,2.626,12.097,11.125,9.471,18.982l-27.027,80.851    C163.744,465.876,158.013,470,151.565,470z"/>
	</g>
	<g>
		<path style="fill:#FFF4F4;" d="M240.168,469.973h-7.34c-18.131,0-32.83-14.698-32.83-32.83v-45.287    c0-18.131,14.698-32.83,32.83-32.83h7.34c18.131,0,32.83,14.698,32.83,32.83v45.287    C272.999,455.275,258.3,469.973,240.168,469.973z M232.828,389.026c-1.556,0-2.83,1.273-2.83,2.83v45.287    c0,1.557,1.274,2.83,2.83,2.83h7.34c1.556,0,2.83-1.273,2.83-2.83v-45.287c0-1.556-1.273-2.83-2.83-2.83H232.828z"/>
	</g>
	<g>
		<path style="fill:#CCBEB9;" d="M370.568,65.767h-44.639c-5.208,0-9.431-4.373-9.431-9.767V9.767c0-3.951,2.298-7.512,5.822-9.024    c3.523-1.512,7.581-0.676,10.277,2.117l44.639,46.232c2.697,2.793,3.504,6.995,2.045,10.644    C377.821,63.387,374.383,65.767,370.568,65.767z"/>
	</g>
	<g>
		<path style="fill:#FFF4F4;" d="M151.565,470c-0.022,0-0.044,0-0.066,0c-6.476-0.028-12.202-4.209-14.201-10.369l-26.287-80.979    c-2.559-7.879,1.756-16.341,9.635-18.898c7.886-2.56,16.342,1.757,18.898,9.636l12.229,37.672l12.592-37.669    c2.627-7.856,11.122-12.098,18.982-9.471c7.856,2.626,12.097,11.125,9.471,18.982l-27.027,80.851    C163.744,465.876,158.013,470,151.565,470z"/>
	</g>
	<path style="fill:#97002C;" d="M305.305,88.278c-7.416-7.14-19.212-6.915-26.349,0.499l-22.957,23.843v53.734l49.805-51.728   C312.942,107.212,312.718,95.416,305.305,88.278z"/>
	<path style="fill:#FDBF00;" d="M482.999,216h-227v101h227c8.284,0,15-6.716,15-15v-71C497.999,222.715,491.283,216,482.999,216z"/>
	<path style="fill:#EEE1DC;" d="M255.999,363.093v102.813c10.133-5.589,17-16.373,17-28.764v-45.287   C272.999,379.466,266.132,368.682,255.999,363.093z"/>
</g>















</svg>
