<svg height="512pt" viewBox="0 -25 512 512" width="512pt" xmlns="http://www.w3.org/2000/svg"><path d="m486.609375 369.988281h-69.582031v-126.933593c0-88.792969-72.238282-161.027344-161.027344-161.027344s-161.027344 72.234375-161.027344 161.027344v126.933593h-69.582031v-126.933593c0-61.597657 23.988281-119.507813 67.542969-163.066407 43.554687-43.554687 101.46875-67.542969 163.066406-67.542969s119.507812 23.988282 163.066406 67.542969c43.554688 43.554688 67.542969 101.46875 67.542969 163.066407zm0 0" fill="#78cbec"/><path d="m381.507812 122.960938 28.542969-38.757813c1.914063-2.597656 3.527344-5.378906 4.839844-8.285156-43.046875-40.976563-99.242187-63.472657-158.890625-63.472657s-115.839844 22.496094-158.886719 63.46875c1.3125 2.910157 2.925781 5.691407 4.839844 8.289063l28.539063 38.757813c2.5625 3.472656 5.585937 6.519531 8.949218 9.097656 29.351563-30.804688 70.75-50.03125 116.558594-50.03125s87.210938 19.226562 116.558594 50.035156c3.363281-2.582031 6.390625-5.628906 8.949218-9.101562zm0 0" fill="#00a2d7"/><path d="m381.746094 43.804688c-37.59375-23.820313-80.730469-36.328126-125.746094-36.328126s-88.152344 12.507813-125.746094 36.328126c-7.683594 4.867187-9.539062 15.289062-4.144531 22.609374l28.539063 38.753907c4.847656 6.578125 13.902343 8.347656 20.898437 4.121093 24.207031-14.625 51.75-22.292968 80.453125-22.292968s56.246094 7.667968 80.457031 22.292968c6.996094 4.226563 16.050781 2.460938 20.894531-4.121093l28.539063-38.753907c5.394531-7.320312 3.539063-17.742187-4.144531-22.609374zm0 0" fill="#4f4c5f"/><path d="m433.554688 262.933594h-34.457032l-31.789062 90.203125 31.789062 90.199219h34.457032c15.851562 0 28.699218-12.851563 28.699218-28.699219l24.355469-61.5-24.355469-61.5c0-15.855469-12.847656-28.703125-28.699218-28.703125zm0 0" fill="#ff9db0"/><path d="m462.253906 384.632812c0 15.851563-12.847656 28.703126-28.699218 28.703126h-34.457032l-26.503906-75.203126-5.285156 15 31.789062 90.203126h34.457032c15.851562 0 28.703124-12.851563 28.703124-28.703126l24.351563-61.5-5.941406-15zm0 0" fill="#fd5f7e"/><path d="m78.445312 262.933594h34.457032l31.789062 90.203125-31.789062 90.199219h-34.457032c-15.851562 0-28.699218-12.851563-28.699218-28.699219l-24.355469-61.5 24.355469-61.5c0-15.855469 12.847656-28.703125 28.699218-28.703125zm0 0" fill="#ff9db0"/><path d="m112.902344 413.335938h-34.457032c-15.851562 0-28.699218-12.851563-28.699218-28.703126l-18.414063-46.5-5.941406 15 24.355469 61.5c0 15.851563 12.847656 28.703126 28.699218 28.703126h34.457032l31.789062-90.203126-5.285156-15zm0 0" fill="#fd5f7e"/><path d="m369.003906 253.523438c-16.605468-5.195313-33.484375 7.210937-33.484375 24.613281v149.996093c0 17.398438 16.878907 29.804688 33.484375 24.613282l30.09375-9.410156v-180.402344zm0 0" fill="#6a647f"/><path d="m335.519531 398.132812v30c0 17.398438 16.878907 29.804688 33.484375 24.613282l30.09375-9.410156v-30l-30.09375 9.410156c-16.605468 5.191406-33.484375-7.214844-33.484375-24.613282zm0 0" fill="#4f4c5f"/><path d="m480.71875 291.632812h-18.464844v123h18.464844c13.132812 0 23.78125-10.644531 23.78125-23.78125v-75.4375c0-13.132812-10.648438-23.78125-23.78125-23.78125zm0 0" fill="#6a647f"/><path d="m480.71875 384.632812h-18.464844v30h18.464844c13.132812 0 23.78125-10.644531 23.78125-23.78125v-30c0 13.136719-10.648438 23.78125-23.78125 23.78125zm0 0" fill="#4f4c5f"/><path d="m142.996094 253.523438c16.605468-5.195313 33.484375 7.210937 33.484375 24.613281v149.996093c0 17.398438-16.878907 29.804688-33.484375 24.613282l-30.09375-9.410156v-180.402344zm0 0" fill="#6a647f"/><path d="m142.996094 422.746094-30.09375-9.410156v30l30.09375 9.410156c16.605468 5.191406 33.484375-7.214844 33.484375-24.613282v-30c0 17.398438-16.878907 29.804688-33.484375 24.613282zm0 0" fill="#4f4c5f"/><path d="m31.28125 291.632812h18.464844v123h-18.464844c-13.132812 0-23.78125-10.644531-23.78125-23.78125v-75.4375c0-13.132812 10.648438-23.78125 23.78125-23.78125zm0 0" fill="#6a647f"/><path d="m7.5 360.851562v30c0 13.136719 10.648438 23.78125 23.78125 23.78125h18.464844v-30h-18.464844c-13.132812 0-23.78125-10.644531-23.78125-23.78125zm0 0" fill="#4f4c5f"/><path d="m0 315.4375v75.441406c0 17.246094 14.03125 31.277344 31.28125 31.277344h11.75c3.464844 16.375 18.023438 28.703125 35.414062 28.703125h33.3125l29 9.070313c21.125 6.601562 43.222657-9.65625 43.222657-31.773438 0 0 0-149.84375 0-149.996094 0-22.011718-22.265625-38.324218-43.222657-31.769531l-29 9.066406h-9.285156v-12.378906c0-11.210937 1.222656-22.398437 3.628906-33.265625.898438-4.042969-1.652343-8.046875-5.695312-8.945312-4.046875-.894532-8.050781 1.65625-8.945312 5.699218-2.648438 11.929688-3.988282 24.210938-3.988282 36.511719v12.378906h-9.027344c-16.785156 0-31.949218 12.300781-35.417968 28.699219h-10.136719v-41.078125c0-59.59375 23.207031-115.625 65.347656-157.761719 6.265625-6.261718 12.90625-12.167968 19.839844-17.644531.574219 1.117187 1.246094 2.199219 1.992187 3.214844l28.539063 38.753906c.558594.757813 1.167969 1.488281 1.816406 2.171875-20.476562 16.496094-36.890625 37.5625-47.816406 61.488281-1.71875 3.765625-.0625 8.214844 3.707031 9.9375 3.769532 1.71875 8.21875.0625 9.9375-3.707031 10.976563-24.027344 28.039063-44.878906 49.425782-60.496094.554687.039063 1.113281.066406 1.671874.066406 4.25 0 8.421876-1.164062 12.070313-3.371093 22.972656-13.878907 49.453125-21.214844 76.578125-21.214844s53.605469 7.335937 76.578125 21.21875c3.648437 2.203125 7.824219 3.367187 12.074219 3.367187.5625 0 1.121094-.027343 1.675781-.066406 39.621094 28.9375 63.199219 75.074219 63.199219 124.039063v12.382812h-9.285156s-28.992188-9.066406-29-9.070312c-20.808594-6.503907-43.222657 9.4375-43.222657 31.769531v150c0 22 22.257813 38.324219 43.222657 31.769531l29-9.066406h33.3125c17.390624 0 31.949218-12.328125 35.414062-28.703125h11.75c17.25 0 31.28125-14.03125 31.28125-31.28125v-75.4375c0-12.460938-7.324219-23.238281-17.890625-28.261719v-44.097656c0-46.757813-13.464844-91.917969-38.941406-130.597656-2.277344-3.460938-6.929688-4.417969-10.386719-2.140625-3.460938 2.277344-4.417969 6.929687-2.140625 10.390625 23.855469 36.226562 36.464844 78.53125 36.464844 122.347656v41.078125h-10.132813c-2.605468-12.335938-11.957031-22.8125-23.90625-26.820312-3.703125-1.242188-7.605468-1.878907-11.511718-1.878907h-9.027344v-12.378906c0-51.066406-23.339844-99.339844-62.953125-131.265625.011719-.011719 1.261719-1.429688 1.816406-2.171875l28.539063-38.753906c.746093-1.007813 1.421874-2.101563 1.996093-3.214844 11.257813 8.890625 21.664063 18.851563 31.050781 29.699219 2.707032 3.132812 7.445313 3.476562 10.578126.765625 3.132812-2.710938 3.472656-7.445313.765624-10.578125-3.820312-4.417969-7.84375-8.738282-11.953124-12.847656-9-9.003907-18.75-17.304688-28.992188-24.734376-1.640625-5.132812-5.039062-9.585937-9.613281-12.484374-38.714844-24.527344-83.585938-37.492188-129.761719-37.492188s-91.042969 12.964844-129.761719 37.492188c-4.574219 2.894531-7.96875 7.351562-9.609375 12.484374-10.246094 7.425782-19.992187 15.730469-28.996094 24.734376-44.972656 44.972656-69.742187 104.765624-69.742187 168.367187v44.097656c-10.566406 5.023438-17.890625 15.804688-17.890625 28.261719zm366.765625 130.171875c-11.628906 3.632813-23.746094-5.265625-23.746094-17.453125 0 0 0-149.5625 0-149.996094 0-12.128906 12.222657-21.058594 23.746094-17.453125l24.832031 7.765625v169.375zm130.234375-54.730469c0 8.976563-7.304688 16.277344-16.28125 16.277344h-10.964844v-108h10.972656c8.859376.011719 16.273438 7.425781 16.273438 16.28125zm-63.445312-120.421875c11.542968 0 21.199218 9.664063 21.199218 21.203125v122.996094c0 11.691406-9.511718 21.203125-21.199218 21.203125h-26.957032v-165.402344zm-299.285157-220.296875c36.308594-23.003906 78.402344-35.160156 121.730469-35.160156s85.421875 12.160156 121.734375 35.164062c3.960937 2.507813 4.875 8.085938 2.117187 11.828126l-28.539062 38.753906c-2.574219 3.5-7.261719 4.132812-10.976562 2.148437-25.3125-15.292969-54.476563-23.375-84.335938-23.375s-59.023438 8.082031-84.332031 23.375c-3.609375 2.179688-8.472657 1.257813-10.980469-2.152343l-28.539062-38.75c-2.742188-3.722657-1.828126-9.332032 2.121093-11.832032zm10.964844 210.546875c11.617187-3.636719 23.746094 5.285157 23.746094 17.453125v149.996094c0 12.117188-12.21875 21.058594-23.746094 17.453125l-24.832031-7.761719v-169.378906s24.832031-7.761719 24.832031-7.761719zm-39.832031 9.75v165.402344h-26.957032c-11.6875 0-21.199218-9.511719-21.199218-21.203125v-123c0-11.6875 9.507812-21.199219 21.199218-21.199219zm-90.402344 44.980469c0-8.792969 7.492188-16.269531 16.28125-16.28125h10.964844v108h-10.964844c-8.976562 0-16.28125-7.300781-16.28125-16.277344 0 0 0-75.394531 0-75.441406zm0 0"/></svg>