<svg height="503pt" viewBox="0 0 503 503.66291" width="503pt" xmlns="http://www.w3.org/2000/svg"><path d="m369.289062 58.808594-58.753906 354.207031-8.390625 6.710937-41.96875-33.570312-41.96875 33.570312-41.964843-33.570312-41.96875 33.570312-41.964844-33.570312-41.96875 33.570312-41.96875-33.570312v-352.527344l41.96875 33.574219 41.96875-33.574219 41.964844 33.574219 41.96875-33.574219 41.964843 33.574219 41.96875-33.574219 41.96875 33.574219 41.964844-33.574219zm0 0" fill="#c52828"/><path d="m359.722656 49.242188-57.578125 346.984374-8.394531 6.714844-41.96875-33.574218-41.964844 33.574218-41.96875-33.574218-41.96875 33.574218-41.964844-33.574218-41.96875 33.574218-33.574218-26.859375v-342.453125l41.96875 33.574219 41.96875-33.574219 41.964844 33.574219 41.96875-33.574219 41.964843 33.574219 41.96875-33.574219 41.96875 33.574219 41.964844-33.574219zm0 0" fill="#f44335"/><path d="m461.617188 134.351562v327.34375h-151.082032v-327.34375c-.054687-19.820312 7.730469-38.859374 21.65625-52.960937 1.175782-1.09375 2.351563-2.183594 3.523438-3.191406 7.324218-6.617188 15.882812-11.722657 25.183594-15.023438v-29.546875c-.019532-2.839844.492187-5.65625 1.507812-8.308594 4.050781-11.570312 15.851562-18.53125 27.9375-16.472656 12.082031 2.054688 20.917969 12.527344 20.914062 24.78125v29.546875c10.625 3.71875 20.269532 9.804688 28.203126 17.792969 14.207031 14.128906 22.183593 33.347656 22.15625 53.382812zm0 0" fill="#00838f"/><path d="m436.4375 151.136719v310.558593h-125.902344v-327.34375c-.054687-19.820312 7.730469-38.859374 21.65625-52.960937 1.144532-.550781 2.320313-1.027344 3.523438-1.429687v-1.761719c7.324218-6.617188 15.882812-11.722657 25.183594-15.023438v-29.546875c-.019532-2.839844.492187-5.65625 1.507812-8.308594 6.144531.335938 11.949219 2.9375 16.285156 7.300782 4.730469 4.714844 7.386719 11.117187 7.386719 17.796875v29.542969c10.625 3.722656 20.269531 9.804687 28.199219 17.796874 14.207031 14.128907 22.1875 33.34375 22.160156 53.378907zm0 0" fill="#00bcd4"/><path d="m495.191406 478.484375c-.066406 9.242187-7.542968 16.714844-16.785156 16.785156h-184.65625c-9.261719-.027343-16.761719-7.527343-16.789062-16.785156.070312-9.246094 7.546874-16.71875 16.789062-16.789063h184.65625c9.257812.027344 16.757812 7.527344 16.785156 16.789063zm0 0" fill="#00695c"/><path d="m470.011719 478.484375c-.070313 9.242187-7.542969 16.714844-16.785157 16.785156h-159.476562c-9.261719-.027343-16.761719-7.527343-16.789062-16.785156.070312-9.246094 7.546874-16.71875 16.789062-16.789063h159.476562c9.257813.027344 16.757813 7.527344 16.785157 16.789063zm0 0" fill="#009688"/><path d="m92.660156 352.582031c0 4.632813-3.757812 8.390625-8.394531 8.390625s-8.394531-3.757812-8.394531-8.390625c0-4.636719 3.757812-8.394531 8.394531-8.394531s8.394531 3.757812 8.394531 8.394531zm0 0"/><path d="m369.609375 86.929688c-16.046875 5.738281-28.132813 19.167968-32.15625 35.730468-.519531 2.164063-.15625 4.449219 1.007813 6.347656 1.164062 1.898438 3.039062 3.257813 5.203124 3.773438.640626.148438 1.296876.226562 1.957032.226562 3.882812-.003906 7.257812-2.667968 8.160156-6.445312 2.671875-11.027344 10.707031-19.96875 21.382812-23.804688 2.929688-.914062 5.125-3.355468 5.726563-6.363281.601563-3.007812-.484375-6.105469-2.835937-8.078125-2.347657-1.96875-5.585938-2.503906-8.445313-1.386718zm0 0"/><path d="m344.460938 153.496094c-4.632813 0-8.390626 3.757812-8.390626 8.394531v91.808594c0 4.632812 3.757813 8.390625 8.390626 8.390625 4.636718 0 8.394531-3.757813 8.394531-8.390625v-91.808594c0-4.636719-3.757813-8.394531-8.394531-8.394531zm0 0"/><path d="m344.460938 401.371094c-4.632813 0-8.390626 3.757812-8.390626 8.394531v18.355469c0 4.636718 3.757813 8.394531 8.390626 8.394531 4.636718 0 8.394531-3.757813 8.394531-8.394531v-18.355469c0-4.636719-3.757813-8.394531-8.394531-8.394531zm0 0"/><path d="m478.757812 453.300781h-8.394531v-318.949219c-.050781-33.351562-19.808593-63.519531-50.359375-76.890624v-23.832032c.078125-17.820312-13.816406-32.582031-31.613281-33.5742185-17.792969-.9960935-33.246094 12.1210935-35.15625 29.8398435l-3.527344-2.820312c-3.0625-2.449219-7.417969-2.449219-10.480469 0l-36.730468 29.378906-36.722656-29.378906c-3.0625-2.449219-7.417969-2.449219-10.484376 0l-36.726562 29.378906-36.722656-29.378906c-3.066406-2.449219-7.417969-2.449219-10.484375 0l-36.730469 29.378906-36.71875-29.378906c-3.066406-2.449219-7.417969-2.449219-10.484375 0l-36.730469 29.386719-36.71875-29.378907c-2.519531-2.015625-5.972656-2.410156-8.878906-1.011719-2.910156 1.394532-4.761719 4.332032-4.761719 7.558594v352.527344c0 2.550781 1.160157 4.960938 3.15625 6.554688l41.964844 33.574218c3.066406 2.449219 7.421875 2.449219 10.484375 0l36.722656-29.378906 36.730469 29.378906c3.0625 2.449219 7.417969 2.449219 10.480469 0l36.722656-29.378906 36.730469 29.378906c3.0625 2.449219 7.417969 2.449219 10.484375 0l36.71875-29.378906 36.730468 29.378906c1.488282 1.1875 3.332032 1.835938 5.238282 1.835938v25.179687h-8.394532c-13.90625 0-25.179687 11.273438-25.179687 25.183594 0 13.90625 11.273437 25.179687 25.179687 25.179687h184.65625c13.90625 0 25.179688-11.273437 25.179688-25.179687 0-13.910156-11.273438-25.183594-25.179688-25.183594zm-212.984374-73.703125c-3.0625-2.449218-7.417969-2.449218-10.484376 0l-36.726562 29.378906-36.722656-29.378906c-3.066406-2.449218-7.417969-2.449218-10.484375 0l-36.730469 29.378906-36.71875-29.378906c-3.066406-2.449218-7.417969-2.449218-10.484375 0l-36.730469 29.378906-33.574218-26.859374v-21.144532h33.574218c4.636719 0 8.394532-3.757812 8.394532-8.390625 0-4.636719-3.757813-8.394531-8.394532-8.394531h-33.574218v-235.015625h58.753906c4.636718 0 8.394531-3.757813 8.394531-8.394531 0-4.636719-3.757813-8.394532-8.394531-8.394532h-58.753906v-41.285156l28.335937 22.660156c3.066406 2.453126 7.421875 2.453126 10.484375 0l36.722656-29.375 36.730469 29.375c3.0625 2.453126 7.417969 2.453126 10.480469 0l36.722656-29.375 36.730469 29.375c3.0625 2.453126 7.417969 2.453126 10.484375 0l36.71875-29.375 36.730468 29.375c3.066407 2.453126 7.417969 2.453126 10.484376 0l36.71875-29.375 8.394531 6.714844v6.371094c-16.554688 7.277344-30.296875 19.730469-39.171875 35.484375-.890625-.347656-1.835938-.539063-2.792969-.570313h-41.96875c-4.636719 0-8.394531 3.757813-8.394531 8.394532 0 4.636718 3.757812 8.394531 8.394531 8.394531h37.519531c-2.597656 8.140625-3.929687 16.632813-3.945312 25.179687v209.835938h-25.179688c-4.636718 0-8.394531 3.757812-8.394531 8.394531 0 4.632813 3.757813 8.390625 8.394531 8.390625h25.179688v48.011719zm53.507812-245.246094c.019531-28.4375 17.945312-53.777343 44.753906-63.261718 3.359375-1.183594 5.605469-4.355469 5.609375-7.914063v-29.546875c0-9.269531 7.515625-16.785156 16.785157-16.785156 9.269531 0 16.785156 7.515625 16.785156 16.785156v29.546875c.003906 3.5625 2.253906 6.734375 5.617187 7.914063 26.789063 9.507812 44.703125 34.835937 44.746094 63.261718v318.949219h-134.296875zm159.476562 352.523438h-184.65625c-4.636718 0-8.394531-3.757812-8.394531-8.390625 0-4.636719 3.757813-8.394531 8.394531-8.394531h184.65625c4.636719 0 8.394532 3.757812 8.394532 8.394531 0 4.632813-3.757813 8.390625-8.394532 8.390625zm0 0"/><path d="m119.703125 161.394531c8.417969-8.433593 18.394531-15.15625 29.375-19.792969 22.996094-9.617187 48.882813-9.617187 71.875 0 22.132813 9.390626 39.753906 27.011719 49.144531 49.144532 1.808594 4.269531 6.734375 6.265625 11.003906 4.457031 4.269532-1.808594 6.265626-6.734375 4.457032-11.003906-14.128906-33.460938-43.980469-57.699219-79.628906-64.65625-35.652344-6.953125-72.425782 4.285156-98.09375 29.984375-2.183594 2.105468-3.058594 5.226562-2.289063 8.164062.765625 2.933594 3.058594 5.222656 5.992187 5.992188 2.9375.769531 6.054688-.105469 8.164063-2.289063zm0 0"/><path d="m149.054688 311.753906c-34.203126-14.425781-56.429688-47.953125-56.394532-85.074218 0-4.636719-3.757812-8.394532-8.394531-8.394532s-8.394531 3.757813-8.394531 8.394532c.027344 43.847656 26.265625 83.4375 66.644531 100.535156 2.054687.867187 4.367187.882812 6.429687.046875 2.066407-.839844 3.710938-2.464844 4.574219-4.519531 1.796875-4.265626-.199219-9.183594-4.464843-10.988282zm0 0"/><path d="m281.066406 258.15625c-4.265625-1.804688-9.1875.191406-10.996094 4.457031-14.425781 34.207031-47.957031 56.429688-85.082031 56.394531-4.636719 0-8.394531 3.757813-8.394531 8.394532 0 4.632812 3.757812 8.390625 8.394531 8.390625 43.847657-.023438 83.4375-26.261719 100.542969-66.632813.867188-2.054687.886719-4.363281.046875-6.429687-.835937-2.0625-2.460937-3.710938-4.511719-4.574219zm0 0"/><path d="m184.988281 184.710938c4.632813 0 8.390625-3.757813 8.390625-8.390626 0-4.636718-3.757812-8.394531-8.390625-8.394531-19.703125-.003906-38.09375 9.863281-48.980469 26.285157-10.890624 16.417968-12.820312 37.203124-5.148437 55.347656 1.3125 3.109375 4.363281 5.125 7.738281 5.121094 1.117188 0 2.226563-.222657 3.253906-.664063 2.054688-.863281 3.675782-2.511719 4.515626-4.574219.835937-2.066406.820312-4.378906-.046876-6.429687-5.476562-12.960938-4.09375-27.804688 3.683594-39.527344 7.777344-11.726563 20.914063-18.777344 34.984375-18.773437zm0 0"/><path d="m207.867188 280.808594c29.871093-12.660156 43.855468-47.113282 31.257812-77.011719-1.167969-2.761719-3.722656-4.6875-6.699219-5.054687-2.976562-.371094-5.925781.878906-7.730469 3.273437-1.808593 2.390625-2.199218 5.566406-1.03125 8.328125 8.996094 21.359375-1 45.96875-22.34375 55.003906-10.445312 4.382813-22.210937 4.382813-32.660156 0-4.265625-1.808594-9.195312.1875-11.003906 4.457032-1.804688 4.269531.1875 9.195312 4.457031 11.003906 14.628907 6.167968 31.125 6.167968 45.753907 0zm0 0"/></svg>