<svg height="512pt" viewBox="0 0 512 512" width="512pt" xmlns="http://www.w3.org/2000/svg"><path d="m420.328125 7.605469h-328.65625c-46.429687 0-84.066406 37.636719-84.066406 84.066406v328.65625c0 46.429687 37.636719 84.066406 84.066406 84.066406h328.65625c46.429687 0 84.066406-37.636719 84.066406-84.066406v-328.65625c0-46.429687-37.636719-84.066406-84.066406-84.066406zm0 0" fill="#1a94ba"/><path d="m91.671875 483.105469c-34.613281 0-62.777344-28.164063-62.777344-62.777344v-328.65625c0-34.613281 28.164063-62.777344 62.777344-62.777344h328.65625c34.617187 0 62.777344 28.164063 62.777344 62.777344v328.65625c0 34.613281-28.164063 62.777344-62.777344 62.777344zm0 0" fill="#6dccf2"/><path d="m216.371094 369.648438c0 50.371093-11.019532 73.992187-24.609375 73.992187-13.59375 0-24.609375-23.625-24.609375-73.992187 0-50.371094 11.015625-108.414063 24.609375-108.414063 13.589843 0 24.609375 58.042969 24.609375 108.414063zm0 0" fill="#65687f"/><path d="m363.613281 369.648438c0 50.371093-11.019531 73.992187-24.609375 73.992187s-24.609375-23.625-24.609375-73.992187c0-50.371094 11.019531-108.414063 24.609375-108.414063s24.609375 58.042969 24.609375 108.414063zm0 0" fill="#65687f"/><path d="m339 443.644531c-13.59375 0-24.605469-23.625-24.605469-73.992187 0-50.378906 11.011719-108.421875 24.605469-108.421875-4.511719 0-8.171875 58.042969-8.171875 108.421875 0 50.367187 3.660156 73.992187 8.171875 73.992187zm0 0" fill="#3a3d51"/><path d="m191.757812 443.640625c-13.597656 0-24.605468-23.625-24.605468-73.992187 0-50.378907 11.007812-108.421876 24.605468-108.421876-4.511718 0-8.171874 58.042969-8.171874 108.421876 0 50.367187 3.660156 73.992187 8.171874 73.992187zm0 0" fill="#3a3d51"/><path d="m387.59375 185.699219v26.9375c0 13.421875-5.445312 25.570312-14.234375 34.359375-8.792969 8.789062-20.9375 14.234375-34.363281 14.234375-26.835938 0-48.59375-21.757813-48.59375-48.59375v-26.9375zm0 0" fill="#e6e6e6"/><path d="m386.40625 185.699219c-2.046875 9.113281-6.671875 17.265625-13.046875 23.640625-8.792969 8.792968-20.9375 14.234375-34.363281 14.234375-23.15625 0-42.53125-16.199219-47.40625-37.875zm0 0" fill="#fff"/><path d="m259.117188 187.238281c0 50.371094-30.164063 73.992188-67.351563 73.992188-37.199219 0-67.351563-23.621094-67.351563-73.992188 0-7.511719.667969-15.195312 1.9375-22.832031 7.21875-43.566406 33.761719-85.578125 65.414063-85.578125 31.640625 0 58.195313 42.011719 65.414063 85.578125 1.265624 7.636719 1.9375 15.320312 1.9375 22.832031zm0 0" fill="#e6e6e6"/><path d="m257.179688 164.40625c-7.21875 36.125-33.773438 53.226562-65.414063 53.226562-31.652344 0-58.195313-17.101562-65.414063-53.226562 7.21875-43.566406 33.761719-85.578125 65.414063-85.578125 31.640625 0 58.195313 42.011719 65.414063 85.578125zm0 0" fill="#fff"/><path d="m420.328125 0h-328.65625c-50.546875 0-91.671875 41.125-91.671875 91.671875v328.65625c0 50.546875 41.125 91.671875 91.671875 91.671875h266.066406c4.199219 0 7.605469-3.40625 7.605469-7.605469s-3.40625-7.601562-7.605469-7.601562h-266.066406c-42.160156 0-76.464844-34.304688-76.464844-76.464844v-328.65625c0-42.160156 34.304688-76.464844 76.464844-76.464844h328.65625c42.160156 0 76.464844 34.304688 76.464844 76.464844v328.65625c0 42.160156-34.304688 76.464844-76.464844 76.464844h-32.171875c-4.199219 0-7.601562 3.402343-7.601562 7.601562s3.402343 7.605469 7.601562 7.605469h32.171875c50.546875 0 91.671875-41.125 91.671875-91.671875v-328.65625c0-50.546875-41.125-91.671875-91.671875-91.671875zm0 0"/><path d="m266.71875 187.238281c0-25.972656-7.765625-54.734375-20.773438-76.9375-14.761718-25.199219-34.003906-39.078125-54.179687-39.078125-17.605469 0-34.964844 10.945313-48.882813 30.820313-2.410156 3.4375-1.574218 8.179687 1.867188 10.589843 3.4375 2.40625 8.179688 1.574219 10.589844-1.867187 10.988281-15.691406 23.925781-24.332031 36.425781-24.332031 14.34375 0 29.308594 11.5 41.058594 31.554687 11.703125 19.976563 18.6875 45.863281 18.6875 69.25 0 41.570313-22.335938 66.390625-59.746094 66.390625-37.414063 0-59.746094-24.820312-59.746094-66.390625 0-16.585937 3.542969-34.757812 9.976563-51.171875 1.535156-3.90625-.394532-8.320312-4.304688-9.851562-3.910156-1.535156-8.320312.390625-9.855468 4.300781-7.109376 18.140625-11.027344 38.28125-11.027344 56.726563 0 25.699218 7.589844 46.878906 21.953125 61.257812 9.789062 9.800781 22.320312 16.183594 36.785156 18.875-3.253906 6.660156-6.101563 15.804688-8.625 27.585938-4.617187 21.582031-7.375 49.5-7.375 74.6875 0 51.855468 11.742187 81.597656 32.210937 81.597656 20.472657 0 32.214844-29.742188 32.214844-81.597656 0-25.1875-2.757812-53.105469-7.375-74.6875-2.523437-11.78125-5.371094-20.921876-8.625-27.585938 14.46875-2.6875 27-9.074219 36.792969-18.875 14.363281-14.382812 21.953125-35.5625 21.953125-61.261719zm-64.699219 235.6875c-2.953125 8.089844-6.882812 13.113281-10.261719 13.113281-3.375 0-7.304687-5.023437-10.257812-13.113281-3.078125-8.433593-6.746094-24.523437-6.746094-53.277343 0-22.507813 2.234375-46.9375 6.128906-67.027344 4.054688-20.933594 8.550782-30 10.875-32.957032 2.324219 2.957032 6.820313 12.023438 10.878907 32.957032 3.894531 20.089844 6.125 44.519531 6.125 67.027344.003906 28.753906-3.664063 44.84375-6.742188 53.277343zm0 0"/><path d="m395.195312 212.640625v-133.816406c0-4.199219-3.40625-7.601563-7.605468-7.601563-4.199219 0-7.601563 3.402344-7.601563 7.601563v99.269531h-17.667969v-99.269531c0-4.199219-3.40625-7.601563-7.605468-7.601563-4.199219 0-7.605469 3.402344-7.605469 7.601563v99.269531h-16.222656v-99.269531c0-4.199219-3.40625-7.601563-7.605469-7.601563s-7.601562 3.402344-7.601562 7.601563v99.269531h-17.667969v-99.269531c0-4.199219-3.40625-7.601563-7.605469-7.601563s-7.605469 3.402344-7.605469 7.601563v133.816406c0 25.5 17.078125 47.070313 40.390625 53.917969-3.421875 6.726562-6.398437 16.136718-9.023437 28.402344-4.621094 21.578124-7.378907 49.5-7.378907 74.6875 0 51.855468 11.742188 81.597656 32.214844 81.597656 20.46875 0 32.210938-29.742188 32.210938-81.597656 0-25.1875-2.757813-53.109376-7.375-74.6875-2.625-12.265626-5.601563-21.679688-9.027344-28.402344 23.308594-6.851563 40.382812-28.421875 40.382812-53.917969zm-45.933593 210.285156c-2.953125 8.089844-6.882813 13.113281-10.257813 13.113281-3.378906 0-7.308594-5.023437-10.257812-13.113281-3.078125-8.433593-6.75-24.523437-6.75-53.277343 0-22.507813 2.234375-46.9375 6.128906-67.027344 4.054688-20.933594 8.550781-30 10.875-32.957032 2.328125 2.957032 6.820312 12.023438 10.878906 32.957032 3.894532 20.089844 6.128906 44.519531 6.128906 67.027344 0 28.753906-3.667968 44.84375-6.746093 53.277343zm-10.261719-169.296875c-22.601562 0-40.988281-18.386718-40.988281-40.988281v-19.339844h81.972656v19.339844c.003906 22.601563-18.382813 40.988281-40.984375 40.988281zm0 0"/></svg>