<?xml version="1.0" encoding="iso-8859-1"?>
<!-- Generator: Adobe Illustrator 19.0.0, SVG Export Plug-In . SVG Version: 6.00 Build 0)  -->
<svg version="1.1" id="Capa_1" xmlns="http://www.w3.org/2000/svg" xmlns:xlink="http://www.w3.org/1999/xlink" x="0px" y="0px"
	 viewBox="0 0 512 512" style="enable-background:new 0 0 512 512;" xml:space="preserve">
<path style="fill:#FF5368;" d="M301.039,49.358L148.717,8.543c-16.004-4.288-32.454,5.209-36.742,21.213L71.16,182.079
	c-4.288,16.004,5.209,32.454,21.213,36.742l152.322,40.814c16.004,4.288,32.454-5.209,36.742-21.213L322.252,86.1
	C326.54,70.096,317.043,53.646,301.039,49.358z"/>
<path style="fill:#C5324F;" d="M314.485,57.126c-10.002,2.69-18.338,10.486-21.211,21.21l-32.403,120.93
	c-4.646,17.338-22.467,27.627-39.804,22.981l-120.93-32.403c-10.728-2.876-21.644,0.448-28.974,7.764
	c2.691,10.002,10.485,18.34,21.21,21.213l152.322,40.814c16.004,4.288,32.454-5.209,36.742-21.213L322.252,86.1
	C325.125,75.376,321.802,64.457,314.485,57.126z"/>
<path style="fill:#FF5368;" d="M440.84,425.899l-40.814-152.322c-4.288-16.004-20.739-25.501-36.742-21.213l-152.322,40.814
	c-16.004,4.288-25.501,20.738-21.213,36.742l40.815,152.322c4.288,16.004,20.738,25.501,36.742,21.213l152.322-40.815
	C435.631,458.354,445.128,441.904,440.84,425.899z"/>
<path style="fill:#C5324F;" d="M400.026,273.577c-2.874-10.724-11.211-18.518-21.213-21.209c-7.316,7.331-10.639,18.25-7.765,28.974
	l32.403,120.929c4.646,17.338-5.643,35.158-22.981,39.804l-120.93,32.404c-10.724,2.873-18.518,11.21-21.209,21.212
	c7.331,7.316,18.25,10.639,28.974,7.766l152.322-40.815c16.004-4.288,25.501-20.738,21.213-36.742L400.026,273.577z"/>
<g>
	<ellipse style="fill:#FFF9EB;" cx="347.094" cy="322.8" rx="22.499" ry="22.499"/>
	<ellipse style="fill:#FFF9EB;" cx="283.449" cy="433.012" rx="22.499" ry="22.499"/>
	<circle style="fill:#FFF9EB;" cx="315.29" cy="377.91" r="22.5"/>
	<ellipse style="fill:#FFF9EB;" cx="164.881" cy="78.972" rx="22.499" ry="22.499"/>
	<ellipse style="fill:#FFF9EB;" cx="251.814" cy="102.275" rx="22.499" ry="22.499"/>
	<ellipse style="fill:#FFF9EB;" cx="141.586" cy="165.916" rx="22.499" ry="22.499"/>
	<ellipse style="fill:#FFF9EB;" cx="228.514" cy="189.198" rx="22.499" ry="22.499"/>
</g>
<path d="M252.479,268.165l0.011-0.05v0.05c8.1,0,16.13-2.7,22.619-7.62c6.69-5.06,11.381-12.041,13.57-20.172
	c1.07-4-1.31-8.12-5.3-9.19c-0.64-0.17-1.29-0.26-1.95-0.26c-3.38,0-6.36,2.29-7.24,5.56c-2.62,9.82-11.55,16.681-21.71,16.691
	c-1.97,0-3.93-0.27-5.84-0.78L94.31,211.582c-9.819-2.62-16.68-11.55-16.68-21.721c0-1.96,0.26-3.92,0.77-5.84l40.82-152.329
	c2.61-9.82,11.54-16.681,21.71-16.691c1.96,0,3.93,0.26,5.85,0.78L299.1,56.593c9.811,2.62,16.67,11.551,16.68,21.721
	c0,1.96-0.26,3.93-0.77,5.84l-33.05,123.348c-0.521,1.94-0.26,3.96,0.75,5.69c1,1.74,2.62,2.98,4.55,3.5
	c0.64,0.17,1.29,0.26,1.95,0.26c3.38,0,6.359-2.29,7.24-5.56c0-0.01,0-0.01,0-0.02L329.5,88.035c0.85-3.18,1.279-6.451,1.279-9.721
	c0-8.11-2.699-16.141-7.619-22.631c-5.061-6.69-12.04-11.391-20.181-13.571L150.66,1.29C147.479,0.44,144.21,0,140.93,0
	c-8.1,0-16.14,2.71-22.63,7.621c-6.69,5.07-11.38,12.051-13.57,20.191L63.91,180.14c-0.851,3.19-1.28,6.46-1.28,9.721
	c0,8.11,2.7,16.141,7.62,22.631c5.06,6.69,12.04,11.391,20.18,13.581l152.32,40.812C245.93,267.736,249.2,268.165,252.479,268.165z"
	/>
<path d="M448.09,423.975c-0.01,0-0.01-0.01-0.01-0.01c-0.88-3.27-3.851-5.55-7.24-5.55c-0.65,0-1.311,0.09-1.94,0.26
	c-1.939,0.51-3.55,1.76-4.55,3.49c-1.01,1.74-1.27,3.76-0.75,5.69c0.51,1.92,0.771,3.88,0.771,5.84
	c-0.011,10.171-6.87,19.101-16.681,21.721l-152.33,40.812c-1.909,0.51-3.88,0.77-5.84,0.78c-10.17-0.01-19.1-6.871-21.71-16.691
	l-40.82-152.328c-0.511-1.92-0.771-3.881-0.771-5.841c0-10.171,6.86-19.101,16.68-21.721l152.32-40.812
	c1.91-0.51,3.88-0.77,5.84-0.78c10.17,0.01,19.101,6.871,21.72,16.691l33.051,123.347c0.88,3.28,3.859,5.56,7.239,5.56
	c0.65,0,1.311-0.08,1.94-0.25c4-1.07,6.38-5.2,5.31-9.19c0,0,0-0.01-0.01-0.01l-33.04-123.337
	c-2.189-8.14-6.88-15.121-13.569-20.181c-6.49-4.92-14.521-7.631-22.641-7.631c-3.28,0-6.55,0.44-9.72,1.29l-152.32,40.812
	c-8.14,2.19-15.12,6.891-20.18,13.581c-4.92,6.491-7.62,14.531-7.62,22.631c0,3.28,0.43,6.551,1.29,9.731l40.81,152.329
	c2.19,8.13,6.881,15.111,13.57,20.181c6.49,4.91,14.521,7.611,22.62,7.611h0.01c3.271,0,6.54-0.43,9.721-1.28l152.329-40.812
	c8.141-2.19,15.12-6.89,20.181-13.58c4.91-6.491,7.62-14.521,7.62-22.632C449.37,430.425,448.939,427.155,448.09,423.975z"/>
<path d="M354.879,351.786c15.978-4.282,25.494-20.765,21.213-36.744l0,0c-4.282-15.979-20.763-25.495-36.742-21.215
	c-7.74,2.074-14.21,7.039-18.217,13.979c-4.007,6.94-5.07,15.025-2.996,22.765c2.073,7.741,7.037,14.211,13.978,18.218
	c4.623,2.669,9.752,4.032,14.951,4.032C349.671,352.821,352.295,352.478,354.879,351.786z M332.625,326.688
	c-1.037-3.87-0.505-7.913,1.498-11.383c2.004-3.47,5.238-5.952,9.109-6.989c1.295-0.347,2.597-0.513,3.878-0.513
	c6.622,0,12.699,4.427,14.493,11.12c2.14,7.99-2.618,16.231-10.607,18.372c-3.871,1.038-7.914,0.503-11.382-1.498
	C336.145,333.794,333.662,330.559,332.625,326.688z"/>
<path d="M275.709,404.06L275.709,404.06c-15.978,4.282-25.493,20.765-21.212,36.744c2.073,7.741,7.037,14.21,13.978,18.217
	c4.623,2.67,9.752,4.033,14.951,4.033c2.605,0,5.229-0.343,7.813-1.035c15.978-4.282,25.494-20.765,21.213-36.745
	C308.17,409.295,291.691,399.777,275.709,404.06z M287.356,447.529c-3.872,1.037-7.912,0.504-11.382-1.499
	c-3.47-2.004-5.952-5.238-6.989-9.108c-2.14-7.99,2.618-16.231,10.606-18.373l0,0c7.984-2.14,16.23,2.617,18.372,10.607
	C300.104,437.147,295.346,445.388,287.356,447.529z"/>
<path d="M345.294,377.922c0-16.543-13.458-30.002-30-30.002s-30,13.459-30,30.002c0,16.543,13.458,30.002,30,30.002
	S345.294,394.465,345.294,377.922z M300.294,377.922c0-8.271,6.729-15.001,15-15.001s15,6.729,15,15.001
	c0,8.271-6.729,15.001-15,15.001S300.294,386.194,300.294,377.922z"/>
<path d="M193.863,86.736c2.074-7.741,1.011-15.826-2.996-22.766S180.39,52.065,172.65,49.992
	c-15.975-4.281-32.46,5.235-36.742,21.215c-4.281,15.979,5.235,32.462,21.213,36.744c2.585,0.692,5.208,1.035,7.813,1.035
	c5.198,0,10.329-1.363,14.951-4.032C186.826,100.946,191.79,94.477,193.863,86.736z M172.386,91.962
	c-3.471,2.003-7.513,2.535-11.382,1.498c-7.989-2.141-12.747-10.382-10.607-18.372c1.794-6.694,7.87-11.12,14.493-11.12
	c1.281,0,2.583,0.166,3.878,0.513c0,0,0,0,0.001,0c3.87,1.037,7.104,3.519,9.108,6.989c2.003,3.47,2.535,7.512,1.498,11.383
	C178.338,86.724,175.855,89.959,172.386,91.962z"/>
<path d="M280.797,110.031c4.281-15.979-5.235-32.462-21.213-36.744c-15.975-4.283-32.461,5.235-36.742,21.215
	c-4.281,15.979,5.235,32.462,21.213,36.744c2.591,0.694,5.194,1.025,7.758,1.025C265.056,132.271,277.209,123.419,280.797,110.031z
	 M266.309,106.148c-2.142,7.99-10.386,12.748-18.371,10.608c-7.989-2.141-12.747-10.382-10.607-18.372
	c1.794-6.695,7.87-11.121,14.493-11.121c1.281,0,2.583,0.166,3.878,0.513C263.69,89.917,268.448,98.159,266.309,106.148z"/>
<path d="M149.357,136.93c-7.744-2.074-15.826-1.01-22.765,2.997c-6.94,4.007-11.904,10.477-13.978,18.217
	c-2.074,7.741-1.011,15.826,2.996,22.766s10.476,11.904,18.216,13.979c2.592,0.694,5.193,1.025,7.758,1.025
	c13.243,0,25.397-8.853,28.985-22.241C174.852,157.695,165.335,141.212,149.357,136.93z M156.082,169.792
	c-2.142,7.989-10.386,12.749-18.372,10.608c-3.87-1.037-7.104-3.519-9.108-6.989c-2.003-3.47-2.535-7.513-1.498-11.383
	s3.52-7.105,6.989-9.108c2.312-1.335,4.876-2.016,7.476-2.016c1.303,0,2.614,0.171,3.906,0.518
	C153.464,153.561,158.222,161.802,156.082,169.792z"/>
<path d="M236.291,160.225L236.291,160.225c-15.979-4.279-32.462,5.236-36.743,21.215c-4.281,15.979,5.235,32.462,21.213,36.744
	c2.585,0.692,5.208,1.035,7.813,1.035c5.198,0,10.329-1.363,14.951-4.032c6.94-4.007,11.904-10.477,13.978-18.217
	C261.784,180.991,252.269,164.507,236.291,160.225z M243.015,193.087c-1.037,3.87-3.52,7.105-6.989,9.108
	c-3.471,2.003-7.513,2.534-11.382,1.498c-7.989-2.141-12.747-10.382-10.607-18.372c1.794-6.694,7.871-11.12,14.494-11.12
	c1.281,0,2.583,0.166,3.879,0.513h-0.001C240.396,176.855,245.155,185.098,243.015,193.087z"/>
<g>
</g>
<g>
</g>
<g>
</g>
<g>
</g>
<g>
</g>
<g>
</g>
<g>
</g>
<g>
</g>
<g>
</g>
<g>
</g>
<g>
</g>
<g>
</g>
<g>
</g>
<g>
</g>
<g>
</g>
</svg>
