<svg height="512pt" viewBox="0 -17 512 511" width="512pt" xmlns="http://www.w3.org/2000/svg"><path d="m256 7.996094c-137.242188 0-248.5 91.886718-248.5 205.230468 0 94.476563 77.308594 174.03125 182.527344 197.902344l-.105469-.011718c-1.921875 15.535156-15.058594 34.71875-24.652344 46.933593-3.855469 4.910157.144531 11.988281 6.351563 11.328125 63.339844-6.726562 78.6875-50.980468 78.6875-50.980468l-.035156-.003907c1.90625.039063 3.8125.0625 5.726562.0625 137.242188 0 248.5-91.886719 248.5-205.230469s-111.257812-205.230468-248.5-205.230468zm0 0" fill="#fd747f"/><path d="m256 373.457031c-55.941406 0-108.171875-17.6875-147.0625-49.808593-36.394531-30.054688-56.4375-69.273438-56.4375-110.421876 0-41.148437 20.042969-80.363281 56.4375-110.421874 38.890625-32.117188 91.121094-49.808594 147.0625-49.808594s108.171875 17.6875 147.0625 49.808594c36.394531 30.058593 56.4375 69.273437 56.4375 110.421874 0 41.148438-20.042969 80.363282-56.4375 110.421876-38.890625 32.121093-91.121094 49.808593-147.0625 49.808593zm0 0" fill="#efedee"/><path d="m148.9375 323.648438c-36.394531-30.054688-56.4375-69.273438-56.4375-110.421876 0-41.148437 20.042969-80.363281 56.4375-110.421874 34.214844-28.257813 78.753906-45.339844 127.0625-49.039063-6.601562-.507813-13.273438-.769531-20-.769531-55.941406 0-108.171875 17.6875-147.0625 49.808594-36.394531 30.058593-56.4375 69.273437-56.4375 110.421874 0 41.148438 20.042969 80.367188 56.4375 110.421876 38.890625 32.121093 91.121094 49.808593 147.0625 49.808593 6.726562 0 13.398438-.261719 20-.769531-48.308594-3.699219-92.847656-20.78125-127.0625-49.039062zm0 0" fill="#d4d4d4"/><path d="m109.609375 324.375c-2.496094 3.304688-1.839844 8.007812 1.464844 10.507812 39.320312 29.714844 90.789062 46.078126 144.925781 46.078126 57.683594 0 111.605469-18.300782 151.835938-51.527344 38.152343-31.507813 59.164062-72.777344 59.164062-116.203125 0-43.429688-21.011719-84.699219-59.164062-116.207031-40.230469-33.226563-94.152344-51.523438-151.835938-51.523438s-111.605469 18.296875-151.835938 51.523438c-38.152343 31.507812-59.164062 72.777343-59.164062 116.207031 0 36.703125 14.761719 71.59375 42.691406 100.890625 2.855469 3 7.605469 3.113281 10.601563.257812 3-2.859375 3.113281-7.605468.253906-10.605468-25.21875-26.457032-38.546875-57.765626-38.546875-90.542969 0-38.871094 19.078125-76.035157 53.714844-104.640625 37.550781-31.011719 88.082031-48.089844 142.285156-48.089844s104.734375 17.078125 142.285156 48.089844c34.636719 28.605468 53.714844 65.769531 53.714844 104.640625 0 38.871093-19.078125 76.03125-53.714844 104.636719-37.550781 31.015624-88.082031 48.09375-142.285156 48.09375-50.894531 0-99.152344-15.289063-135.882812-43.046876-3.304688-2.5-8.007813-1.84375-10.507813 1.460938zm0 0"/><path d="m441.960938 76.929688c-2.921876 2.933593-2.910157 7.683593.027343 10.605468 35.476563 35.285156 55.011719 79.925782 55.011719 125.695313 0 109.027343-108.113281 197.726562-241 197.726562-5.425781 0-10.578125-.636719-12.90625 5.328125-1.675781 4.292969-16.96875 39.339844-71.242188 45.527344 10.371094-13.328125 22.757813-32.097656 25.320313-48.398438.667969-4.246093-.769531-8.527343-5.484375-9.597656-50.019531-11.34375-95.085938-36.308594-126.90625-70.285156-32.566406-34.773438-49.78125-76.375-49.78125-120.300781 0-109.03125 108.113281-197.730469 241-197.730469 61.054688 0 119.3125 18.800781 164.042969 52.9375 3.292969 2.511719 8 1.878906 10.511719-1.414062 2.515624-3.292969 1.882812-8-1.410157-10.511719-47.332031-36.121094-108.820312-56.011719-173.144531-56.011719-68.117188 0-132.214844 21.957031-180.492188 61.828125-48.691406 40.210937-75.507812 93.804687-75.507812 150.902344 0 47.804687 18.613281 92.949219 53.832031 130.554687 32.273438 34.460938 77.207031 60.167969 127.179688 72.890625-3.128907 9.957031-10.613281 22.707031-21.640625 36.746094-3.609375 4.59375-4.113282 10.863281-1.285156 15.96875 2.804687 5.074219 8.570312 8.0625 14.328124 7.449219 54.960938-5.835938 76.371094-38.144532 82.75-50.882813.277344.003907.558594.003907.835938.003907 68.117188 0 132.21875-21.960938 180.492188-61.828126 48.691406-40.214843 75.507812-93.804687 75.507812-150.902343 0-49.792969-21.105469-98.207031-59.433594-136.332031-2.9375-2.921876-7.6875-2.910157-10.605468.03125zm0 0"/><path d="m182.972656 139.476562v-14.574218c0-4.144532-3.359375-7.5-7.5-7.5-4.144531 0-7.5 3.355468-7.5 7.5v14.574218c0 4.140626 3.355469 7.5 7.5 7.5 4.140625 0 7.5-3.359374 7.5-7.5zm0 0"/><path d="m344.027344 139.476562v-14.574218c0-4.144532-3.355469-7.5-7.5-7.5-4.140625 0-7.5 3.355468-7.5 7.5v14.574218c0 4.140626 3.359375 7.5 7.5 7.5 4.144531 0 7.5-3.359374 7.5-7.5zm0 0"/><path d="m256 154.753906c9.910156 0 19.214844-4.140625 25.523438-11.355468 2.722656-3.121094 2.40625-7.859376-.710938-10.582032-3.121094-2.726562-7.859375-2.410156-10.585938.710938-3.460937 3.957031-8.644531 6.226562-14.226562 6.226562s-10.769531-2.269531-14.230469-6.226562c-2.722656-3.121094-7.460937-3.4375-10.582031-.710938-3.121094 2.722656-3.4375 7.460938-.710938 10.582032 6.308594 7.214843 15.613282 11.355468 25.523438 11.355468zm0 0"/><path d="m216.574219 202.613281c0 6.671875 5.457031 9.707031 10.109375 9.707031 9.300781 0 6.671875-13.953124 26.484375-13.953124 12.335937 0 20.828125 6.066406 20.828125 17.390624 0 13.746094-12.738282 20.824219-19.816406 27.496094-5.660157 5.054688-12.128907 13.140625-12.128907 31.945313 0 8.695312 2.628907 11.320312 9.300781 11.320312 8.289063 0 10.109376-3.636719 10.109376-7.277343 0-11.726563.199218-18.601563 10.105468-26.6875 6.066406-5.664063 23.859375-18.804688 23.859375-39.628907 0-19.410156-15.972656-34.171875-41.652343-34.171875-24.460938.003906-37.199219 14.15625-37.199219 23.859375zm0 0"/><path d="m251.550781 301.078125c-7.480469 0-13.542969 6.269531-13.542969 13.75 0 7.28125 5.863282 13.75 13.542969 13.75 7.683594 0 13.75-6.46875 13.75-13.75 0-7.480469-6.269531-13.75-13.75-13.75zm0 0"/></svg>